<svg width="16" height="16" viewBox="0 0 16 16" fill="none" xmlns="http://www.w3.org/2000/svg">
<g id="ChatGPT 1" clip-path="url(#clip0_405_6739)">
<path id="Vector" d="M14.0364 6.14999C14.3818 5.12655 14.2629 4.00592 13.7104 3.07526C12.8795 1.64756 11.2089 0.913286 9.57763 1.25878C8.85201 0.452042 7.80914 -0.00677239 6.71612 7.55759e-05C5.04816 -0.00390066 3.56871 1.05555 3.05556 2.62152C1.98426 2.83801 1.0596 3.49983 0.518469 4.43756C-0.318871 5.86127 -0.128119 7.65566 0.990424 8.87703C0.644965 9.90047 0.76385 11.0211 1.3164 11.9518C2.14725 13.3795 3.8179 14.1137 5.44915 13.7683C6.17476 14.575 7.21763 15.0338 8.31065 15.027C9.97951 15.0311 11.4596 13.971 11.9723 12.404C13.0436 12.1875 13.9683 11.5257 14.5094 10.5879C15.3459 9.16421 15.1547 7.3707 14.0364 6.14999ZM8.31199 14.0444C7.64436 14.0453 6.99778 13.8146 6.48507 13.3927C6.50813 13.3803 6.54866 13.3583 6.57508 13.3424L9.60741 11.614C9.76234 11.527 9.85772 11.3642 9.8566 11.1883V6.9702L11.1384 7.70051C11.152 7.70713 11.1614 7.72017 11.1632 7.73519V11.2285C11.1614 12.7817 9.88637 14.0408 8.31199 14.0444ZM2.17971 11.4603C1.84523 10.8901 1.72477 10.2221 1.83918 9.5731C1.86179 9.58635 1.90097 9.61021 1.92918 9.62611L4.96152 11.3545C5.11533 11.4433 5.30586 11.4433 5.45967 11.3545L9.16187 9.24528V10.7057C9.16277 10.7209 9.15583 10.7353 9.14351 10.7445L6.07804 12.4908C4.71323 13.2666 2.96914 12.8056 2.17971 11.4603ZM1.382 4.9284C1.71492 4.35759 2.24084 3.92043 2.8675 3.69378C2.8675 3.71963 2.86593 3.76513 2.86593 3.79694V7.2534C2.86481 7.42924 2.95996 7.59182 3.11489 7.67886L6.8171 9.78781L5.53534 10.5179C5.52258 10.5263 5.50624 10.5276 5.49213 10.5219L2.42644 8.77409C1.06386 7.99519 0.596606 6.27525 1.382 4.9284ZM11.9128 7.3464L8.21035 5.23723L9.49211 4.50737C9.50487 4.49897 9.52121 4.49764 9.53532 4.50361L12.601 6.24984C13.9663 7.02786 14.4338 8.75068 13.6452 10.0975C13.3116 10.6674 12.7862 11.1042 12.16 11.3317V7.77186C12.1615 7.59624 12.067 7.43366 11.9128 7.3464ZM13.1885 5.45194C13.1659 5.43825 13.1267 5.41483 13.0985 5.39893L10.0659 3.67059C9.91212 3.58201 9.72182 3.58201 9.56778 3.67059L5.86558 5.77976V4.31938C5.86468 4.30413 5.87162 4.28978 5.88393 4.2805L8.9494 2.53559C10.3151 1.75868 12.0605 2.22103 12.848 3.56853C13.1807 4.13802 13.3011 4.80426 13.1885 5.45194ZM5.16861 8.05506L3.88663 7.32475C3.87298 7.31813 3.86357 7.30509 3.86178 7.29007V3.79694C3.8629 2.24157 5.14152 0.981323 6.71814 0.982428C7.38488 0.98287 8.03034 1.21349 8.5426 1.63431C8.51954 1.64668 8.47924 1.66877 8.4526 1.68468L5.42026 3.41302C5.26533 3.49983 5.16996 3.66263 5.17108 3.83847L5.16861 8.05506ZM5.8649 6.57391L7.51384 5.63419L9.16277 6.57324V8.45202L7.51384 9.39107L5.8649 8.45202V6.57391Z" fill="#215E08"/>
</g>
<defs>
<clipPath id="clip0_405_6739">
<rect width="15.027" height="15.027" fill="white"/>
</clipPath>
</defs>
</svg>
