<svg width="146" height="69" viewBox="0 0 146 69" fill="none" xmlns="http://www.w3.org/2000/svg">
<g clip-path="url(#clip0_2008_10122)">
<path d="M102.782 81.4127C102.695 83.0119 101.624 84.4506 100.041 85.0866C90.002 89.1193 51.8297 103.85 24.6955 106.01C22.8844 106.154 21.2139 105.22 20.52 103.669C18.7807 99.7834 15.4406 90.0071 10.2494 65.6384C9.38782 61.5958 8.47597 57.1513 7.51109 52.2649C7.12533 50.309 8.32796 48.3255 10.3405 47.599C22.9802 43.0406 66.7242 27.7544 88.4988 26.4252L88.5213 26.4238C90.4651 26.3151 92.1993 27.4404 92.7478 29.1783C95.5351 38.0127 103.657 65.3593 102.782 81.4127Z" fill="#1F4A0B"/>
<path d="M60.653 71.779C60.128 71.9323 59.5942 72.0541 59.0547 72.1438C56.7847 72.5246 54.0379 72.4516 50.8908 71.9264C45.7341 71.0659 39.3596 68.9816 31.9442 65.733C19.4071 60.2367 8.00572 53.1832 7.8921 53.1125C7.73101 53.0184 7.59041 52.893 7.4786 52.7436C7.36679 52.5942 7.28603 52.424 7.24109 52.2429C7.19615 52.0618 7.18795 51.8736 7.21696 51.6892C7.24597 51.5049 7.3116 51.3283 7.40999 51.1698C7.50838 51.0113 7.63753 50.874 7.78981 50.7662C7.9421 50.6584 8.11444 50.5822 8.29666 50.5421C8.47887 50.502 8.66728 50.4988 8.85075 50.5327C9.03422 50.5666 9.20904 50.637 9.3649 50.7395C9.47756 50.8105 20.7311 57.7698 33.0885 63.1832C40.2873 66.3369 46.435 68.3501 51.3606 69.172C57.1491 70.1363 61.1183 69.4439 63.1576 67.1141C73.407 55.408 90.2478 29.0477 90.4167 28.7819C90.6215 28.4827 90.9347 28.2748 91.29 28.2022C91.6453 28.1297 92.0148 28.1981 92.3206 28.3931C92.6263 28.5881 92.8443 28.8944 92.9283 29.2471C93.0124 29.5999 92.956 29.9715 92.7711 30.2834C92.7288 30.3499 88.4594 37.0384 82.9694 45.0974C75.5837 55.9394 69.6248 63.9657 65.2589 68.9533C64.1043 70.2735 62.5594 71.2199 60.653 71.779Z" fill="#0F2703"/>
<path d="M36.923 104.191C36.7303 104.248 36.5277 104.262 36.3289 104.234C36.1302 104.205 35.9399 104.134 35.7712 104.025C35.6025 103.916 35.4592 103.772 35.3512 103.602C35.2431 103.433 35.1729 103.243 35.1452 103.044C35.1335 102.959 33.9652 94.4692 33.6533 85.8127C33.4686 80.6836 33.616 76.4837 34.0913 73.3298C34.3898 71.3494 34.8083 69.7968 35.3705 68.5841C36.0881 67.0364 37.0579 66.0518 38.2558 65.6582C38.6042 65.554 38.9796 65.5898 39.302 65.7581C39.6245 65.9263 39.8686 66.2136 39.9825 66.559C40.0965 66.9043 40.0712 67.2805 39.9121 67.6076C39.7531 67.9346 39.4727 68.1868 39.1307 68.3104C38.1717 68.6263 37.323 70.6561 36.856 73.7401C36.4059 76.7202 36.2674 80.7411 36.4454 85.6947C36.7511 94.2108 37.902 102.577 37.9133 102.661C37.9588 102.992 37.8839 103.329 37.7021 103.61C37.5204 103.891 37.2439 104.097 36.923 104.191Z" fill="#0F2703"/>
<path d="M91.3723 88.222C91.1646 88.283 90.9455 88.2948 90.7324 88.2566C90.5193 88.2183 90.318 88.1311 90.1444 88.0017C89.9708 87.8724 89.8296 87.7045 89.7321 87.5112C89.6345 87.3179 89.5832 87.1047 89.5821 86.8882C89.5676 83.4585 88.7446 79.6715 87.1366 75.6322C85.8321 72.3556 84.0134 68.9129 81.7313 65.4007C77.83 59.3966 73.9034 55.2561 73.8655 55.2145C73.623 54.9441 73.4954 54.5899 73.5096 54.227C73.5239 53.8641 73.6789 53.521 73.9419 53.2704C74.2048 53.0199 74.555 52.8816 74.9182 52.8849C75.2814 52.8882 75.629 53.0328 75.8873 53.2881C76.0546 53.4636 80.0315 57.6598 84.0729 63.8789C86.4549 67.5452 88.3589 71.1521 89.7311 74.5995C91.469 78.965 92.3585 83.0954 92.3747 86.876C92.376 87.1787 92.279 87.4736 92.0982 87.7163C91.9174 87.9591 91.6626 88.1366 91.3723 88.222Z" fill="#0F2703"/>
<g opacity="0.11">
<path d="M102.782 81.4127C102.695 83.0119 101.625 84.4506 100.041 85.0865C90.0023 89.1193 51.83 103.85 24.6958 106.01C22.8847 106.154 21.2142 105.22 20.5203 103.669C18.781 99.7834 15.4409 90.0071 10.2497 65.6384C10.2497 65.6384 21.3332 107.044 47.594 97.3576C73.8548 87.6715 109.308 87.8536 88.5222 26.4236C90.466 26.3148 92.2002 27.4402 92.7488 29.1781C95.5354 38.0127 103.657 65.3593 102.782 81.4127Z" fill="black"/>
</g>
<path d="M56.2862 100.36C52.1144 101.583 48.3577 102.604 45.0468 103.414C41.244 104.342 37.9903 105 35.3815 105.365C32.4333 105.779 30.2922 105.835 28.8368 105.537C28.7753 105.527 28.7165 105.504 28.6639 105.47C28.6114 105.436 28.5662 105.392 28.5309 105.341C28.4957 105.289 28.4712 105.231 28.4589 105.17C28.4465 105.109 28.4466 105.046 28.4592 104.985C28.4717 104.924 28.4963 104.866 28.5317 104.814C28.5671 104.763 28.6125 104.719 28.6651 104.685C28.7177 104.652 28.7766 104.629 28.8381 104.619C28.8997 104.609 28.9627 104.611 29.0234 104.625C32.6885 105.374 41.9458 103.595 56.0665 99.4537C59.9178 98.3242 64.1262 97.0205 68.692 95.5428C84.8236 90.3159 99.7326 84.7269 99.8812 84.6708C99.9191 84.6566 99.9587 84.6474 99.999 84.6436C100.486 84.5953 100.884 84.3415 101.215 83.8671C102.053 82.6677 102.41 80.1892 102.274 76.5002C102.155 73.2862 101.654 69.1257 100.786 64.138C99.5774 57.1942 97.7033 48.8226 95.0574 38.5446C94.03 34.5538 92.9367 31.5008 91.807 29.4714C90.826 27.7067 90.0251 27.0879 89.5263 26.8796C89.0523 26.6817 88.788 26.8303 88.7768 26.8367C88.7814 26.8342 88.7859 26.8314 88.7902 26.8283L88.2629 26.0609C88.3255 26.018 88.9008 25.6499 89.7968 25.9857C90.7313 26.3356 91.6602 27.321 92.5624 28.9153C93.7506 31.0153 94.8928 34.177 95.9575 38.3129C98.6098 48.6149 100.489 57.0104 101.702 63.9787C102.578 69.0087 103.082 73.2097 103.203 76.4673C103.349 80.4179 102.948 83.0134 101.977 84.4017C101.501 85.0827 100.888 85.4737 100.153 85.5641C99.1465 85.9407 84.6396 91.3549 68.9809 96.4286C64.4077 97.9085 60.1672 99.2215 56.2862 100.36Z" fill="black"/>
</g>
<g clip-path="url(#clip1_2008_10122)">
<path d="M130.386 43.1689C129.919 43.6678 129.176 43.845 128.484 43.6192C124.097 42.1878 107.582 36.5479 98.1187 29.8213C97.4871 29.3723 97.1968 28.6093 97.3946 27.9124C97.8904 26.1654 99.4763 22.0542 104.454 12.6651C105.28 11.1074 106.199 9.40451 107.222 7.54262C107.632 6.79751 108.568 6.47842 109.425 6.79218C114.806 8.76411 133.295 15.7487 140.779 21.2787L140.786 21.2844C141.452 21.7813 141.71 22.6242 141.414 23.3427C139.905 26.9945 135.07 38.16 130.386 43.1689Z" fill="#1F4A0B"/>
<path d="M119.251 28.4792C119.038 28.3856 118.83 28.2792 118.629 28.1607C117.782 27.6634 116.904 26.8871 116.019 25.8534C114.569 24.1595 113.056 21.732 111.521 18.6386C108.928 13.4075 107.132 7.97832 107.115 7.9241C107.088 7.8492 107.076 7.76967 107.081 7.69021C107.085 7.61074 107.105 7.53296 107.14 7.46145C107.175 7.38993 107.224 7.32614 107.284 7.27383C107.344 7.22151 107.414 7.18174 107.489 7.15686C107.565 7.13199 107.645 7.1225 107.724 7.12897C107.803 7.13544 107.88 7.15774 107.951 7.19454C108.022 7.23134 108.084 7.2819 108.135 7.34324C108.185 7.40458 108.223 7.47546 108.246 7.55169C108.264 7.60574 110.037 12.9636 112.594 18.1184C114.084 21.1214 115.542 23.4636 116.927 25.0815C118.556 26.9824 120.043 27.8432 121.348 27.6401C127.906 26.6204 140.632 22.6152 140.76 22.5745C140.909 22.5328 141.068 22.5506 141.204 22.6242C141.34 22.6978 141.443 22.8214 141.489 22.9689C141.536 23.1164 141.523 23.2762 141.454 23.4146C141.385 23.5529 141.265 23.659 141.119 23.7103C141.087 23.7205 137.859 24.7378 133.856 25.8688C128.472 27.3904 124.325 28.3823 121.531 28.817C120.792 28.9324 120.028 28.8186 119.251 28.4792Z" fill="#0F2703"/>
<path d="M102.615 32.5762C102.536 32.5419 102.466 32.4912 102.409 32.4273C102.352 32.3635 102.309 32.2881 102.284 32.2062C102.258 32.1244 102.251 32.0381 102.262 31.9531C102.273 31.8682 102.302 31.7866 102.348 31.714C102.367 31.6832 104.311 28.5874 106.58 25.6718C107.924 23.9443 109.123 22.6116 110.142 21.7106C110.782 21.1449 111.344 20.7519 111.86 20.5094C112.519 20.2 113.106 20.1437 113.605 20.3432C113.748 20.4045 113.861 20.5191 113.92 20.6624C113.979 20.8057 113.98 20.9665 113.923 21.1107C113.866 21.2548 113.754 21.3709 113.613 21.4342C113.471 21.4976 113.311 21.5032 113.165 21.4499C112.765 21.2905 111.931 21.7217 110.934 22.602C109.97 23.4531 108.824 24.7297 107.525 26.3981C105.292 29.2661 103.377 32.3167 103.358 32.3471C103.282 32.4679 103.165 32.5575 103.029 32.5995C102.892 32.6416 102.745 32.6333 102.615 32.5762Z" fill="#0F2703"/>
<path d="M124.791 42.2699C124.706 42.2329 124.631 42.1768 124.572 42.1059C124.513 42.035 124.471 41.9514 124.449 41.8615C124.428 41.7717 124.428 41.6781 124.449 41.5882C124.47 41.4983 124.512 41.4145 124.571 41.3434C125.505 40.2181 126.274 38.7546 126.854 36.9935C127.325 35.5649 127.674 33.9412 127.89 32.1677C128.259 29.1361 128.109 26.7068 128.108 26.6828C128.103 26.528 128.158 26.3772 128.262 26.2625C128.367 26.1477 128.511 26.078 128.666 26.0682C128.82 26.0583 128.973 26.109 129.091 26.2095C129.208 26.3101 129.282 26.4526 129.297 26.6068C129.304 26.71 129.454 29.1713 129.072 32.3116C128.847 34.1628 128.481 35.8636 127.986 37.3665C127.358 39.2698 126.517 40.8639 125.487 42.1044C125.405 42.2037 125.292 42.2735 125.166 42.3034C125.041 42.3332 124.909 42.3215 124.791 42.2699Z" fill="#0F2703"/>
<g opacity="0.11">
<path d="M130.386 43.1689C129.919 43.6678 129.175 43.8451 128.484 43.6193C124.097 42.1879 107.581 36.5479 98.1186 29.8213C97.487 29.3723 97.1967 28.6094 97.3945 27.9124C97.8903 26.1655 99.4762 22.0543 104.454 12.6651C104.454 12.6651 96.736 29.2383 107.975 33.2649C119.214 37.2914 130.755 47.0622 140.786 21.2845C141.452 21.7814 141.71 22.6244 141.414 23.3428C139.905 26.9945 135.069 38.16 130.386 43.1689Z" fill="black"/>
</g>
<path d="M109.995 36.6273C108.295 35.8846 106.788 35.1892 105.483 34.547C103.986 33.809 102.742 33.1326 101.789 32.5375C100.711 31.8653 99.9962 31.2971 99.602 30.801C99.5848 30.7807 99.5718 30.7571 99.5638 30.7317C99.5559 30.7063 99.5531 30.6796 99.5557 30.6531C99.5583 30.6266 99.5662 30.6009 99.579 30.5775C99.5917 30.5541 99.609 30.5335 99.6298 30.517C99.6507 30.5004 99.6746 30.4882 99.7003 30.4811C99.7259 30.474 99.7528 30.4721 99.7791 30.4755C99.8055 30.479 99.831 30.4877 99.8539 30.5012C99.8769 30.5146 99.8969 30.5326 99.9128 30.554C100.906 31.8029 104.42 33.7569 110.171 36.2709C111.739 36.9565 113.472 37.6831 115.37 38.4506C122.076 41.1605 128.481 43.4171 128.545 43.4394C128.561 43.4451 128.577 43.453 128.591 43.4628C128.764 43.5804 128.963 43.6063 129.201 43.5421C129.804 43.3795 130.599 42.6668 131.565 41.4234C132.407 40.3401 133.383 38.8427 134.465 36.9743C135.972 34.3729 137.653 31.1225 139.603 27.0374C140.36 25.4512 140.839 24.1536 141.026 23.1806C141.188 22.335 141.096 21.9133 140.99 21.7086C140.889 21.514 140.762 21.4902 140.757 21.4892C140.759 21.4897 140.761 21.49 140.763 21.4901L140.801 21.0948C140.833 21.0979 141.122 21.1352 141.323 21.4904C141.533 21.8608 141.567 22.4374 141.425 23.2058C141.238 24.2178 140.746 25.5644 139.961 27.2082C138.006 31.3029 136.321 34.5625 134.808 37.1729C133.717 39.0574 132.731 40.5691 131.878 41.6671C130.844 42.9987 130.002 43.7375 129.304 43.9256C128.962 44.0178 128.654 43.9777 128.389 43.8059C127.957 43.6534 121.731 41.4498 115.222 38.8193C113.321 38.0505 111.575 37.3182 109.995 36.6273Z" fill="black"/>
</g>
<defs>
<clipPath id="clip0_2008_10122">
<rect width="91.3285" height="91.3285" fill="white" transform="translate(0 35.4878) rotate(-16.346)"/>
</clipPath>
<clipPath id="clip1_2008_10122">
<rect width="38.954" height="38.954" fill="white" transform="translate(109.362) rotate(23.611)"/>
</clipPath>
</defs>
</svg>
