<svg width="25" height="22" viewBox="0 0 25 22" fill="none" xmlns="http://www.w3.org/2000/svg">
<path d="M23.4665 4.8H16.2665C15.9482 4.8 15.643 4.92643 15.418 5.15147C15.1929 5.37652 15.0665 5.68174 15.0665 6V9.6H12.6665V1.2C12.6665 0.88174 12.5401 0.576515 12.315 0.351472C12.09 0.126428 11.7848 0 11.4665 0H1.8665C1.54824 0 1.24302 0.126428 1.01798 0.351472C0.792932 0.576515 0.666504 0.88174 0.666504 1.2V20.4C0.666504 20.7183 0.792932 21.0235 1.01798 21.2485C1.24302 21.4736 1.54824 21.6 1.8665 21.6H23.4665C23.7848 21.6 24.09 21.4736 24.315 21.2485C24.5401 21.0235 24.6665 20.7183 24.6665 20.4V6C24.6665 5.68174 24.5401 5.37652 24.315 5.15147C24.09 4.92643 23.7848 4.8 23.4665 4.8ZM7.8665 3.6H10.2665V6H7.8665V3.6ZM5.4665 15.6H3.0665V13.2H5.4665V15.6ZM5.4665 10.8H3.0665V8.4H5.4665V10.8ZM5.4665 6H3.0665V3.6H5.4665V6ZM10.2665 15.6H7.8665V13.2H10.2665V15.6ZM10.2665 10.8H7.8665V8.4H10.2665V10.8ZM21.0665 15.6H18.6665V13.2H21.0665V15.6ZM21.0665 10.8H18.6665V8.4H21.0665V10.8Z" fill="#707070"/>
</svg>
