<svg width="15" height="16" viewBox="0 0 15 16" fill="none" xmlns="http://www.w3.org/2000/svg">
<g id="fi_2740596">
<g id="Layer 93">
<path id="Vector" d="M11.875 3.625H11.25V2.375C11.25 2.20924 11.1842 2.05027 11.0669 1.93306C10.9497 1.81585 10.7908 1.75 10.625 1.75C10.4592 1.75 10.3003 1.81585 10.1831 1.93306C10.0658 2.05027 10 2.20924 10 2.375V3.625H5V2.375C5 2.20924 4.93415 2.05027 4.81694 1.93306C4.69973 1.81585 4.54076 1.75 4.375 1.75C4.20924 1.75 4.05027 1.81585 3.93306 1.93306C3.81585 2.05027 3.75 2.20924 3.75 2.375V3.625H3.125C2.62772 3.625 2.15081 3.82254 1.79917 4.17417C1.44754 4.52581 1.25 5.00272 1.25 5.5V6.125H13.75V5.5C13.75 5.00272 13.5525 4.52581 13.2008 4.17417C12.8492 3.82254 12.3723 3.625 11.875 3.625Z" fill="#707070"/>
<path id="Vector_2" d="M1.25 12.375C1.25 12.8723 1.44754 13.3492 1.79917 13.7008C2.15081 14.0525 2.62772 14.25 3.125 14.25H11.875C12.3723 14.25 12.8492 14.0525 13.2008 13.7008C13.5525 13.3492 13.75 12.8723 13.75 12.375V7.375H1.25V12.375Z" fill="#707070"/>
</g>
</g>
</svg>
