<svg width="16" height="17" viewBox="0 0 16 17" fill="none" xmlns="http://www.w3.org/2000/svg">
<g id="fi_484611" clip-path="url(#clip0_490_115)">
<g id="Group">
<g id="Group_2">
<path id="Vector" d="M2 5.1875L2.83028 15.2105C2.88978 15.9333 3.50547 16.5 4.23103 16.5H11.8812C12.6067 16.5 13.2224 15.9333 13.2819 15.2105L14.1122 5.1875H2ZM5.71191 14.625C5.46653 14.625 5.26009 14.4341 5.24453 14.1855L4.77578 6.62303C4.75975 6.36441 4.95613 6.14194 5.21431 6.12591C5.48209 6.10713 5.69497 6.30581 5.71144 6.56444L6.18019 14.1269C6.19678 14.3948 5.98487 14.625 5.71191 14.625ZM8.52484 14.1562C8.52484 14.4153 8.31519 14.625 8.05609 14.625C7.797 14.625 7.58734 14.4153 7.58734 14.1562V6.59375C7.58734 6.33466 7.797 6.125 8.05609 6.125C8.31519 6.125 8.52484 6.33466 8.52484 6.59375V14.1562ZM11.3364 6.62306L10.8677 14.1856C10.8523 14.4316 10.6472 14.6367 10.3705 14.6241C10.1123 14.6081 9.91597 14.3856 9.932 14.127L10.4007 6.56447C10.4168 6.30584 10.6434 6.11769 10.8979 6.12594C11.1561 6.14197 11.3524 6.36444 11.3364 6.62306Z" fill="#FC2A2A"/>
</g>
</g>
<g id="Group_3">
<g id="Group_4">
<path id="Vector_2" d="M14.125 2.375H11.3125V1.90625C11.3125 1.13081 10.6817 0.5 9.90625 0.5H6.15625C5.38081 0.5 4.75 1.13081 4.75 1.90625V2.375H1.9375C1.41972 2.375 1 2.79472 1 3.3125C1 3.83022 1.41972 4.25 1.9375 4.25C6.24894 4.25 9.81372 4.25 14.125 4.25C14.6428 4.25 15.0625 3.83022 15.0625 3.3125C15.0625 2.79472 14.6428 2.375 14.125 2.375ZM10.375 2.375H5.6875V1.90625C5.6875 1.64762 5.89762 1.4375 6.15625 1.4375H9.90625C10.1649 1.4375 10.375 1.64762 10.375 1.90625V2.375Z" fill="#FC2A2A"/>
</g>
</g>
</g>
<defs>
<clipPath id="clip0_490_115">
<rect width="16" height="16" fill="white" transform="translate(0 0.5)"/>
</clipPath>
</defs>
</svg>
