<svg width="15" height="16" viewBox="0 0 15 16" fill="none" xmlns="http://www.w3.org/2000/svg">
<g id="fi_3037150" clip-path="url(#clip0_536_2346)">
<g id="Group">
<path id="Vector" d="M12.8033 2.69668C11.3868 1.28012 9.50332 0.5 7.5 0.5C5.49668 0.5 3.61324 1.28012 2.19668 2.69668C0.780117 4.11324 0 5.99668 0 8C0 10.0033 0.780147 11.8867 2.19668 13.3033C3.61321 14.7199 5.49668 15.5 7.5 15.5C9.50332 15.5 11.3868 14.7199 12.8033 13.3033C14.2199 11.8868 15 10.0033 15 8C15 5.99668 14.2199 4.11327 12.8033 2.69668ZM7.5 7.53125C8.66312 7.53125 9.60938 8.47751 9.60938 9.64062C9.60938 10.6038 8.96024 11.4177 8.07662 11.6692C8.01313 11.6873 7.96875 11.7444 7.96875 11.8104V12.2055C7.96875 12.4579 7.77478 12.6751 7.52265 12.687C7.25344 12.6996 7.03125 12.4851 7.03125 12.2188V11.8103C7.03125 11.7445 6.98713 11.6874 6.92382 11.6693C6.04397 11.4192 5.39651 10.6113 5.39065 9.65372C5.3891 9.39811 5.59008 9.1794 5.84561 9.17208C6.11077 9.16446 6.32812 9.37716 6.32812 9.64062C6.32812 10.3145 6.89991 10.8574 7.58376 10.8096C8.16103 10.7692 8.62863 10.3016 8.66895 9.72433C8.7167 9.04045 8.17386 8.46875 7.5 8.46875C6.33688 8.46875 5.39062 7.52249 5.39062 6.35938C5.39062 5.39618 6.03976 4.58226 6.92338 4.33077C6.98687 4.3127 7.03125 4.2556 7.03125 4.18959V3.79449C7.03125 3.54207 7.22522 3.32489 7.47735 3.31303C7.74656 3.30037 7.96875 3.51485 7.96875 3.78125V4.18968C7.96875 4.25551 8.01287 4.31264 8.07618 4.33065C8.95603 4.58085 9.60349 5.38865 9.60935 6.34628C9.6109 6.60189 9.40992 6.8206 9.15439 6.82792C8.88923 6.83554 8.67188 6.62284 8.67188 6.35938C8.67188 5.68549 8.10009 5.14262 7.41624 5.19043C6.83897 5.23077 6.37137 5.69841 6.33105 6.27567C6.2833 6.95955 6.82614 7.53125 7.5 7.53125Z" fill="#707070"/>
</g>
</g>
<defs>
<clipPath id="clip0_536_2346">
<rect width="15" height="15" fill="white" transform="translate(0 0.5)"/>
</clipPath>
</defs>
</svg>
