<svg width="17" height="16" viewBox="0 0 17 16" fill="none" xmlns="http://www.w3.org/2000/svg">
<g id="fi_159604" clip-path="url(#clip0_536_4110)">
<g id="Group">
<path id="Vector" d="M8.8335 3.2312C5.77653 3.2312 3.00431 4.9037 0.958688 7.62028C0.791765 7.84284 0.791765 8.15377 0.958688 8.37634C3.00431 11.0962 5.77653 12.7687 8.8335 12.7687C11.8905 12.7687 14.6627 11.0962 16.7083 8.37961C16.8752 8.15705 16.8752 7.84611 16.7083 7.62355C14.6627 4.9037 11.8905 3.2312 8.8335 3.2312ZM9.05279 11.358C7.02353 11.4857 5.34776 9.81318 5.47541 7.78065C5.58015 6.10488 6.93844 4.74659 8.61421 4.64186C10.6435 4.51421 12.3192 6.18671 12.1916 8.21923C12.0836 9.89173 10.7253 11.25 9.05279 11.358ZM8.95132 9.80663C7.85815 9.87537 6.9548 8.97529 7.02681 7.88212C7.08245 6.97877 7.8156 6.2489 8.71894 6.18998C9.81212 6.12125 10.7155 7.02132 10.6435 8.1145C10.5845 9.02112 9.85139 9.75099 8.95132 9.80663Z" fill="#707070"/>
</g>
</g>
<defs>
<clipPath id="clip0_536_4110">
<rect width="16" height="16" fill="white" transform="translate(0.833496)"/>
</clipPath>
</defs>
</svg>
