<svg width="25" height="24" viewBox="0 0 25 24" fill="none" xmlns="http://www.w3.org/2000/svg">
<g clip-path="url(#clip0_405_5502)">
<path d="M20.65 0H3.85C1.86177 0 0.25 1.61177 0.25 3.6V20.4C0.25 22.3882 1.86177 24 3.85 24H20.65C22.6382 24 24.25 22.3882 24.25 20.4V3.6C24.25 1.61177 22.6382 0 20.65 0Z" fill="#1877F2"/>
<path d="M16.9188 15.4688L17.4531 12H14.125V9.75C14.125 8.80312 14.5891 7.875 16.0797 7.875H17.5938V4.92188C17.5938 4.92188 16.2203 4.6875 14.9078 4.6875C12.1656 4.6875 10.375 6.34688 10.375 9.35625V12H7.32812V15.4688H10.375V24H14.125V15.4688H16.9188Z" fill="white"/>
</g>
<defs>
<clipPath id="clip0_405_5502">
<rect width="24" height="24" fill="white" transform="translate(0.25)"/>
</clipPath>
</defs>
</svg>
