<svg width="26" height="26" viewBox="0 0 26 26" fill="none" xmlns="http://www.w3.org/2000/svg">
<g clip-path="url(#clip0_405_5527)">
<path d="M13 26C20.1797 26 26 20.1797 26 13C26 5.8203 20.1797 0 13 0C5.8203 0 0 5.8203 0 13C0 20.1797 5.8203 26 13 26Z" fill="#F0F0F0"/>
<path d="M12.9999 26C16.2965 26 19.3059 24.7723 21.5975 22.75H4.40234C6.69395 24.7723 9.70335 26 12.9999 26Z" fill="#D80027"/>
<path d="M0.40918 16.25C0.705996 17.403 1.15724 18.494 1.73919 19.5H24.26C24.842 18.494 25.2932 17.403 25.59 16.25L12.9996 15.2609L0.40918 16.25Z" fill="#0052B4"/>
<path d="M25.5901 9.75C25.2933 8.59696 24.8421 7.50598 24.2601 6.5L12.9997 6.2174C12.9997 3.94682 12.9997 1.80096 12.9997 0C12.034 0 11.0928 0.105371 10.1871 0.305094C10.1697 0.308953 1.69531 6.99349 1.69531 13C1.912 13.0377 12.9997 14.1304 12.9997 14.1304C12.9997 14.1304 12.9997 11.6543 12.9997 9.75H25.5901Z" fill="#0052B4"/>
<path d="M13 8.11084V1.61083H8.88291L10.1878 0.305908C4.83087 1.48738 0.714797 5.97259 0.0848047 11.5163C0.0294531 12.0033 0 12.4981 0 13H6.5848V10.4089L9.20146 13H13.8523L8.88286 8.11084H13Z" fill="#F0F0F0"/>
<path d="M13.0059 13L8.11682 8.11086H6.5848V8.11091L11.4739 13H4.94564V6.49998H24.2604C23.5526 5.2765 22.6509 4.17942 21.5976 3.24998H4.94564V2.79675C3.63406 3.83355 2.52743 5.11771 1.69564 6.57889V13H0C0 14.1222 0.142187 15.2112 0.409551 16.25H25.5904C25.8578 15.2112 26 14.1222 26 13H13.0059Z" fill="#D80027"/>
</g>
<defs>
<clipPath id="clip0_405_5527">
<rect width="26" height="26" fill="white"/>
</clipPath>
</defs>
</svg>
