<svg width="25" height="24" viewBox="0 0 25 24" fill="none" xmlns="http://www.w3.org/2000/svg">
<g clip-path="url(#clip0_405_5485)">
<path d="M24.4638 12.2245C24.4638 11.2413 24.384 10.5238 24.2114 9.77966H12.9834V14.2176H19.574C19.4411 15.3205 18.7236 16.9815 17.1291 18.0976L17.1067 18.2462L20.6568 20.9964L20.9028 21.0209C23.1616 18.9347 24.4638 15.8653 24.4638 12.2245Z" fill="#4285F4"/>
<path d="M12.984 23.9176C16.2128 23.9176 18.9234 22.8545 20.9033 21.0209L17.1297 18.0976C16.1198 18.8018 14.7645 19.2934 12.984 19.2934C9.82157 19.2934 7.13751 17.2074 6.18072 14.324L6.04048 14.3359L2.34906 17.1927L2.30078 17.3269C4.26732 21.2334 8.30674 23.9176 12.984 23.9176Z" fill="#34A853"/>
<path d="M6.17992 14.3239C5.92747 13.5798 5.78136 12.7825 5.78136 11.9587C5.78136 11.1349 5.92747 10.3376 6.16664 9.59354L6.15996 9.43507L2.42228 6.53235L2.29999 6.59052C1.48948 8.21162 1.02441 10.032 1.02441 11.9587C1.02441 13.8854 1.48948 15.7058 2.29999 17.3269L6.17992 14.3239Z" fill="#FBBC05"/>
<path d="M12.984 4.62403C15.2295 4.62403 16.7443 5.59401 17.608 6.40461L20.983 3.10928C18.9102 1.1826 16.2128 0 12.984 0C8.30674 0 4.26732 2.68406 2.30078 6.59056L6.16744 9.59359C7.13751 6.7102 9.82157 4.62403 12.984 4.62403Z" fill="#EB4335"/>
</g>
<defs>
<clipPath id="clip0_405_5485">
<rect width="24" height="24" fill="white" transform="translate(0.75)"/>
</clipPath>
</defs>
</svg>
