<svg width="24" height="24" viewBox="0 0 24 24" fill="none" xmlns="http://www.w3.org/2000/svg">
<path d="M9 10C6.243 10 4 7.757 4 5C4 2.243 6.243 0 9 0C11.757 0 14 2.243 14 5C14 7.757 11.757 10 9 10Z" fill="#707070"/>
<path d="M4.75 12C2.13 12 0 14.13 0 16.75V20.25C0 20.66 0.34 21 0.75 21H10V17.75C10 15.87 11.4 14.32 13.21 14.05C13.47 13.29 13.96 12.65 14.59 12.19C13.59 11.904 13.536 12 4.75 12Z" fill="#707070"/>
<path d="M22.25 16H21V15.25C21 14.285 20.215 13.5 19.25 13.5H16.75C15.785 13.5 15 14.285 15 15.25V16H13.75C13.258 16 12.815 16.205 12.497 16.533L18 19.404L23.503 16.533C23.185 16.205 22.742 16 22.25 16ZM16.5 16V15.25C16.5 15.112 16.612 15 16.75 15H19.25C19.388 15 19.5 15.112 19.5 15.25V16H16.5Z" fill="#707070"/>
<path d="M18.347 20.915C18.13 21.028 17.87 21.028 17.654 20.915L12 17.965V22.25C12 23.215 12.785 24 13.75 24H22.25C23.215 24 24 23.215 24 22.25V17.965L18.347 20.915Z" fill="#707070"/>
</svg>
