<svg width="34" height="34" viewBox="0 0 34 34" fill="none" xmlns="http://www.w3.org/2000/svg">
<circle cx="17" cy="17" r="17" fill="#EDFFE4"/>
<path d="M20.4948 22.5216C18.8701 21.6179 18.6159 20.6295 18.6038 20.5787C18.6016 20.5693 18.6005 20.5597 18.6005 20.55V16.4545C18.6005 16.4068 18.6278 16.3633 18.6708 16.3425L21.8272 14.8194C21.8613 14.8029 21.9011 14.8029 21.9353 14.8194L22.5463 15.1143C22.6716 15.1747 22.817 15.0834 22.817 14.9443V13.566C22.817 13.4097 22.6903 13.283 22.534 13.283H11.3499C11.1936 13.283 11.0669 13.4097 11.0669 13.566V21.4025C11.0669 22.2158 11.7262 22.8751 12.5395 22.8751H20.4032C20.5978 22.8751 20.6649 22.6162 20.4948 22.5216ZM15.0259 14.4718C15.8441 14.4718 16.5098 15.1374 16.5098 15.9556C16.5098 16.7738 15.8441 17.4394 15.0259 17.4394C14.2077 17.4394 13.5421 16.7738 13.5421 15.9556C13.5421 15.1374 14.2077 14.4718 15.0259 14.4718ZM16.787 21.3841H13.2649C12.8285 21.3841 12.4725 21.037 12.4712 20.6103L12.4712 20.6031C12.4712 19.8939 12.755 19.2348 13.2703 18.7472C13.7853 18.2599 14.4603 18.013 15.1708 18.0524C16.2146 18.1101 17.1344 18.8288 17.4596 19.8408C17.5406 20.0931 17.5813 20.3519 17.5806 20.6098C17.5795 21.0367 17.2234 21.3841 16.787 21.3841Z" fill="#1F4A0B"/>
<path d="M24.7531 16.4553L21.8811 15.0695L18.8491 16.5326V20.533C18.8687 20.5979 18.9803 20.9231 19.357 21.3385C19.7375 21.7581 20.4711 22.3551 21.8166 22.8443C21.8581 22.8594 21.9042 22.8594 21.9456 22.8443C23.2911 22.3551 24.0247 21.7581 24.4052 21.3385C24.7203 20.9911 24.8499 20.7067 24.8954 20.5848C24.9072 20.5532 24.9131 20.5199 24.9131 20.4862V16.7102C24.9131 16.6016 24.8509 16.5025 24.7531 16.4553ZM23.8894 17.4897L21.4021 19.977C21.3778 20.0013 21.3459 20.0134 21.3141 20.0134C21.2823 20.0134 21.2504 20.0013 21.2261 19.977L19.8728 18.6237C19.8243 18.5751 19.8243 18.4964 19.8728 18.4478C19.9214 18.3993 20.0002 18.3993 20.0487 18.4478L21.3141 19.7132L23.7135 17.3138C23.7621 17.2652 23.8408 17.2652 23.8894 17.3138C23.938 17.3624 23.938 17.4411 23.8894 17.4897Z" fill="#1F4A0B"/>
<path d="M15.1568 18.3007C15.1125 18.2982 15.0684 18.297 15.0244 18.297C14.4317 18.297 13.8738 18.5183 13.4411 18.9278C12.9759 19.3679 12.7197 19.9629 12.7197 20.603L12.7198 20.6099C12.7206 20.8994 12.965 21.1353 13.2647 21.1353H16.7867C17.0864 21.1353 17.3309 20.8992 17.3317 20.609C17.3323 20.3772 17.2956 20.1443 17.2225 19.9168C16.9286 19.0022 16.0985 18.3527 15.1568 18.3007Z" fill="#1F4A0B"/>
<path d="M12.7958 12.5206C13.0276 12.5206 13.2161 12.332 13.2161 12.1003C13.2161 11.8685 13.0276 11.6799 12.7958 11.6799C12.564 11.6799 12.3755 11.8685 12.3755 12.1003C12.3755 12.332 12.564 12.5206 12.7958 12.5206Z" fill="#1F4A0B"/>
<path d="M15.0261 17.1907C15.7082 17.1907 16.2612 16.6377 16.2612 15.9556C16.2612 15.2734 15.7082 14.7205 15.0261 14.7205C14.344 14.7205 13.791 15.2734 13.791 15.9556C13.791 16.6377 14.344 17.1907 15.0261 17.1907Z" fill="#1F4A0B"/>
<path d="M11.3499 13.0342H22.534C22.6903 13.0342 22.817 12.9075 22.817 12.7512V12.5974C22.817 11.7841 22.1577 11.1249 21.3445 11.1249H12.5394C11.7262 11.1249 11.0669 11.7841 11.0669 12.5974V12.7512C11.0669 12.9075 11.1936 13.0342 11.3499 13.0342ZM18.6655 11.9759H21.6328C21.7015 11.9759 21.7572 12.0316 21.7572 12.1003C21.7572 12.169 21.7015 12.2246 21.6328 12.2246H18.6655C18.5968 12.2246 18.5411 12.169 18.5411 12.1003C18.5411 12.0316 18.5968 11.9759 18.6655 11.9759ZM15.1172 11.9759H17.0133C17.082 11.9759 17.1376 12.0316 17.1376 12.1003C17.1376 12.169 17.082 12.2246 17.0133 12.2246H15.1172C15.0485 12.2246 14.9928 12.169 14.9928 12.1003C14.9928 12.0316 15.0485 11.9759 15.1172 11.9759ZM12.7958 11.4312C13.1647 11.4312 13.4649 11.7314 13.4649 12.1003C13.4649 12.4692 13.1647 12.7693 12.7958 12.7693C12.4269 12.7693 12.1267 12.4692 12.1267 12.1003C12.1267 11.7314 12.4269 11.4312 12.7958 11.4312Z" fill="#1F4A0B"/>
</svg>
