<svg width="34" height="34" viewBox="0 0 34 34" fill="none" xmlns="http://www.w3.org/2000/svg">
<circle cx="17" cy="17" r="17" fill="#EDFFE4"/>
<path fill-rule="evenodd" clip-rule="evenodd" d="M19.7134 19.1248L19.4492 19.7252C20.0096 19.9657 20.5523 20.2453 21.0735 20.562L21.4065 19.9976C20.8638 19.6663 20.298 19.3747 19.7134 19.1248ZM14.0943 19.1248C13.5117 19.3756 12.9475 19.6672 12.406 19.9976L12.7342 20.562C13.2557 20.2479 13.7984 19.9705 14.3584 19.7318L14.0943 19.1248ZM14.2452 18.5653L14.3321 18.603L16.5011 19.5415L16.6143 19.5891V23.3412H11.6104V20.7162C11.6146 20.5132 11.6639 20.3137 11.7547 20.1321C11.8455 19.9505 11.9755 19.7914 12.1354 19.6662C12.7832 19.2017 13.4936 18.831 14.2452 18.5653ZM19.4854 18.562C20.2452 18.8028 20.9563 19.1766 21.5854 19.6661C21.7452 19.7913 21.8752 19.9505 21.966 20.1321C22.0568 20.3137 22.1061 20.5132 22.1104 20.7162V23.3412H17.1064V19.5891L17.2196 19.5415L19.3918 18.603L19.4854 18.562ZM18.6519 17.6893L19.259 18.3012L17.1065 19.2314V18.2486L18.6519 17.6893ZM15.0688 17.6893L16.6142 18.2486V19.233L14.721 18.4144L14.4618 18.3012L15.0688 17.6893ZM15.3936 14.6459H18.3254C18.4704 14.6456 18.614 14.6745 18.7476 14.7309C18.8812 14.7873 19.0021 14.87 19.1031 14.974C19.2089 15.0837 19.3355 15.1713 19.4755 15.2316C19.4346 15.8988 19.1408 16.5252 18.6539 16.9831C18.167 17.441 17.5238 17.696 16.8554 17.696C16.187 17.696 15.5438 17.441 15.057 16.9831C14.5701 16.5252 14.2763 15.8988 14.2354 15.2316C14.3783 15.1723 14.5078 15.0846 14.616 14.974C14.7169 14.8698 14.8377 14.787 14.9714 14.7307C15.105 14.6743 15.2486 14.6454 15.3936 14.6459ZM16.8177 10.2572H16.903C18.7077 10.2572 20.0202 11.6927 20.0202 12.7592V13.1546C20.1022 13.8879 20.1629 14.0618 20.4976 14.6557C20.352 14.7801 20.1657 14.8467 19.9743 14.8427C19.7828 14.8388 19.5995 14.7646 19.4591 14.6343C19.3122 14.482 19.1361 14.361 18.9413 14.2784C18.7465 14.1958 18.537 14.1534 18.3254 14.1537H15.3953C15.1835 14.1536 14.974 14.1963 14.7792 14.2792C14.5844 14.362 14.4083 14.4834 14.2616 14.636C14.1212 14.7663 13.9379 14.8405 13.7464 14.8444C13.5549 14.8483 13.3687 14.7818 13.2231 14.6574C13.2231 14.6574 13.6546 14.1537 13.7005 13.1546V12.7592C13.7005 11.6927 15.013 10.2572 16.8177 10.2572Z" fill="black"/>
</svg>
