<svg width="34" height="34" viewBox="0 0 34 34" fill="none" xmlns="http://www.w3.org/2000/svg">
<circle cx="17" cy="17" r="17" fill="#EDFFE4"/>
<g clip-path="url(#clip0_2011_4911)">
<path d="M21.4062 21.25C22.5281 21.25 23.4375 20.3406 23.4375 19.2188C23.4375 18.0969 22.5281 17.1875 21.4062 17.1875C20.2844 17.1875 19.375 18.0969 19.375 19.2188C19.375 20.3406 20.2844 21.25 21.4062 21.25Z" fill="#1F4A0B"/>
<path d="M23.4963 21.325C22.9594 21.8578 22.2207 22.1875 21.4062 22.1875C20.5918 22.1875 19.8531 21.8578 19.3162 21.325C18.4189 21.8362 17.8125 22.8017 17.8125 23.9062V24.5312C17.8125 24.7901 18.0224 25 18.2812 25H24.5312C24.7901 25 25 24.7901 25 24.5312V23.9062C25 22.8017 24.3936 21.8362 23.4963 21.325Z" fill="#1F4A0B"/>
<path d="M12.5938 13.0625C13.7156 13.0625 14.625 12.1531 14.625 11.0312C14.625 9.90942 13.7156 9 12.5938 9C11.4719 9 10.5625 9.90942 10.5625 11.0312C10.5625 12.1531 11.4719 13.0625 12.5938 13.0625Z" fill="#1F4A0B"/>
<path d="M16.1875 16.3437V15.7187C16.1875 14.6142 15.5811 13.6487 14.6838 13.1375C14.1469 13.6703 13.4082 14 12.5938 14C11.7793 14 11.0406 13.6703 10.5037 13.1375C9.60641 13.6487 9 14.6142 9 15.7187V16.3437C9 16.6026 9.20987 16.8125 9.46875 16.8125H15.7188C15.9776 16.8125 16.1875 16.6026 16.1875 16.3437Z" fill="#1F4A0B"/>
<path d="M21.4062 10.875V13.3403H20.6728C20.27 13.3403 20.0548 13.8146 20.32 14.1177L21.991 16.0274C22.1777 16.2409 22.5097 16.2409 22.6965 16.0274L24.3675 14.1177C24.6327 13.8146 24.4175 13.3403 24.0147 13.3403H23.2812V9.9375C23.2812 9.41972 22.8615 9 22.3438 9H18.125C17.8661 9 17.6562 9.20987 17.6562 9.46875V10.4062C17.6562 10.6651 17.8661 10.875 18.125 10.875H21.4062Z" fill="#1F4A0B"/>
<path d="M15.875 23.125H12.5938V20.6597H13.3273C13.73 20.6597 13.9452 20.1854 13.68 19.8823L12.009 17.9726C11.8223 17.7591 11.4903 17.7591 11.3035 17.9726L9.63251 19.8823C9.36733 20.1854 9.58254 20.6597 9.98529 20.6597H10.7188V24.0625C10.7188 24.5803 11.1385 25 11.6563 25H15.875C16.1339 25 16.3438 24.7901 16.3438 24.5313V23.5938C16.3438 23.3349 16.1339 23.125 15.875 23.125Z" fill="#1F4A0B"/>
</g>
<defs>
<clipPath id="clip0_2011_4911">
<rect width="16" height="16" fill="white" transform="translate(9 9)"/>
</clipPath>
</defs>
</svg>
