<svg width="24" height="24" viewBox="0 0 24 24" fill="none" xmlns="http://www.w3.org/2000/svg">
<path d="M22.4178 9.82229C22.9695 8.18773 22.7796 6.39794 21.8971 4.91156C20.5702 2.63136 17.9019 1.45863 15.2966 2.01042C14.1377 0.721966 12.4722 -0.0108163 10.7265 0.000120704C8.06253 -0.00622984 5.69967 1.68584 4.88011 4.18689C3.16911 4.53264 1.69232 5.58966 0.828058 7.08733C-0.509276 9.36117 -0.204621 12.227 1.58183 14.1777C1.03009 15.8123 1.21996 17.6021 2.10246 19.0884C3.42942 21.3686 6.09765 22.5414 8.70295 21.9896C9.86185 23.278 11.5274 24.0108 13.2731 23.9999C15.9385 24.0066 18.3024 22.3135 19.1213 19.8106C20.8323 19.4649 22.3091 18.4079 23.1733 16.9102C24.5092 14.6364 24.2039 11.7719 22.4178 9.82229ZM13.2753 22.4306C12.209 22.432 11.1763 22.0637 10.3575 21.3898C10.3943 21.37 10.459 21.3348 10.5012 21.3094L15.3442 18.549C15.5916 18.41 15.744 18.15 15.7422 17.8691V11.1323L17.7893 12.2987C17.8111 12.3092 17.8261 12.3301 17.829 12.354V17.9333C17.8261 20.4139 15.7897 22.4249 13.2753 22.4306ZM3.48127 18.3034C2.94705 17.3928 2.75468 16.326 2.9374 15.2894C2.97351 15.3106 3.03609 15.3487 3.08114 15.3741L7.92415 18.1344C8.16981 18.2763 8.4741 18.2763 8.71976 18.1344L14.6326 14.7658V17.0982C14.6341 17.1226 14.623 17.1455 14.6033 17.1603L9.70738 19.9493C7.5276 21.1884 4.74208 20.452 3.48127 18.3034ZM2.20723 7.87127C2.73894 6.95961 3.57889 6.2614 4.57974 5.89942C4.57974 5.9407 4.57724 6.01338 4.57724 6.06418V11.5846C4.57545 11.8654 4.72742 12.1251 4.97486 12.2641L10.8877 15.6323L8.84062 16.7984C8.82023 16.8118 8.79413 16.8139 8.7716 16.8047L3.87532 14.0133C1.69911 12.7693 0.952852 10.0223 2.20723 7.87127ZM19.0262 11.7331L13.1129 8.36449L15.1601 7.19881C15.1804 7.18541 15.2065 7.18329 15.2291 7.19282L20.1254 9.98176C22.3058 11.2244 23.0525 13.9759 21.7931 16.127C21.2603 17.0372 20.4211 17.7347 19.4209 18.0981V12.4126C19.4234 12.1321 19.2725 11.8725 19.0262 11.7331ZM21.0636 8.70742C21.0275 8.68555 20.9649 8.64815 20.9199 8.62275L16.0765 5.86238C15.8309 5.7209 15.5269 5.7209 15.2809 5.86238L9.36804 9.23099V6.89857C9.36661 6.87423 9.3777 6.8513 9.39736 6.83648L14.2933 4.04965C16.4745 2.80882 19.2622 3.54725 20.5198 5.69938C21.0511 6.60892 21.2435 7.67299 21.0636 8.70742ZM8.25491 12.8649L6.20743 11.6985C6.18562 11.6879 6.1706 11.6671 6.16774 11.6431V6.06418C6.16953 3.58006 8.21164 1.56729 10.7297 1.56906C11.7946 1.56976 12.8254 1.93809 13.6436 2.61019C13.6067 2.62995 13.5424 2.66523 13.4998 2.69063L8.65682 5.451C8.40938 5.58966 8.25705 5.84968 8.25884 6.13051L8.25491 12.8649ZM9.36697 10.4993L12.0005 8.99849L14.6341 10.4983V13.4989L12.0005 14.9987L9.36697 13.4989V10.4993Z" fill="#707070"/>
</svg>
