<svg width="24" height="20" viewBox="0 0 24 20" fill="none" xmlns="http://www.w3.org/2000/svg">
<path d="M15 4.5C14.448 4.5 14 4.052 14 3.5V2H10V3.5C10 4.052 9.552 4.5 9 4.5C8.448 4.5 8 4.052 8 3.5V2C8 0.897 8.897 0 10 0H14C15.103 0 16 0.897 16 2V3.5C16 4.052 15.552 4.5 15 4.5Z" fill="#707070"/>
<path d="M12.71 13.38C12.53 13.45 12.27 13.5 12 13.5C11.73 13.5 11.47 13.45 11.23 13.36L0 9.62V17.25C0 18.77 1.23 20 2.75 20H21.25C22.77 20 24 18.77 24 17.25V9.62L12.71 13.38Z" fill="#707070"/>
<path d="M24 5.75V8.04L12.24 11.96C12.16 11.99 12.08 12 12 12C11.92 12 11.84 11.99 11.76 11.96L0 8.04V5.75C0 4.23 1.23 3 2.75 3H21.25C22.77 3 24 4.23 24 5.75Z" fill="#707070"/>
</svg>
