<svg width="24" height="24" viewBox="0 0 24 24" fill="none" xmlns="http://www.w3.org/2000/svg">
<path d="M6 16.2857C7.89355 16.2857 9.42857 14.7507 9.42857 12.8571C9.42857 10.9636 7.89355 9.42857 6 9.42857C4.10645 9.42857 2.57143 10.9636 2.57143 12.8571C2.57143 14.7507 4.10645 16.2857 6 16.2857Z" fill="#707070"/>
<path d="M8.57143 17.1429H3.42857C2.51926 17.1429 1.64719 17.5041 1.00421 18.1471C0.361224 18.79 0 19.6621 0 20.5714V23.1429C0 23.3702 0.0903058 23.5882 0.251051 23.7489C0.411797 23.9097 0.629814 24 0.857143 24H11.1429C11.3702 24 11.5882 23.9097 11.7489 23.7489C11.9097 23.5882 12 23.3702 12 23.1429V20.5714C12 19.6621 11.6388 18.79 10.9958 18.1471C10.3528 17.5041 9.48074 17.1429 8.57143 17.1429Z" fill="#707070"/>
<path d="M21.4286 0H11.1429C10.4609 0 9.80682 0.270918 9.32458 0.753154C8.84235 1.23539 8.57143 1.88944 8.57143 2.57143V7.71429C8.57143 8.39627 8.84235 9.05033 9.32458 9.53256C9.80682 10.0148 10.4609 10.2857 11.1429 10.2857H13.7143V12C13.7148 12.1583 13.7591 12.3133 13.8423 12.448C13.9255 12.5826 14.0444 12.6916 14.1857 12.7629C14.328 12.8351 14.4877 12.8661 14.6467 12.8525C14.8057 12.8388 14.9578 12.7811 15.0857 12.6857L18.2829 10.2857H21.4286C22.1106 10.2857 22.7646 10.0148 23.2468 9.53256C23.7291 9.05033 24 8.39627 24 7.71429V2.57143C24 1.88944 23.7291 1.23539 23.2468 0.753154C22.7646 0.270918 22.1106 0 21.4286 0ZM12.8571 6C12.6876 6 12.5219 5.94973 12.3809 5.85555C12.24 5.76136 12.1301 5.62749 12.0652 5.47087C12.0004 5.31425 11.9834 5.14191 12.0165 4.97564C12.0495 4.80937 12.1312 4.65664 12.2511 4.53677C12.3709 4.41689 12.5237 4.33526 12.6899 4.30218C12.8562 4.26911 13.0285 4.28609 13.1852 4.35096C13.3418 4.41584 13.4756 4.5257 13.5698 4.66665C13.664 4.80761 13.7143 4.97333 13.7143 5.14286C13.7143 5.37019 13.624 5.5882 13.4632 5.74895C13.3025 5.90969 13.0845 6 12.8571 6ZM16.2857 6C16.1162 6 15.9505 5.94973 15.8095 5.85555C15.6686 5.76136 15.5587 5.62749 15.4938 5.47087C15.4289 5.31425 15.412 5.14191 15.445 4.97564C15.4781 4.80937 15.5597 4.65664 15.6796 4.53677C15.7995 4.41689 15.9522 4.33526 16.1185 4.30218C16.2848 4.26911 16.4571 4.28609 16.6137 4.35096C16.7704 4.41584 16.9042 4.5257 16.9984 4.66665C17.0926 4.80761 17.1429 4.97333 17.1429 5.14286C17.1429 5.37019 17.0526 5.5882 16.8918 5.74895C16.7311 5.90969 16.513 6 16.2857 6ZM19.7143 6C19.5448 6 19.379 5.94973 19.2381 5.85555C19.0971 5.76136 18.9873 5.62749 18.9224 5.47087C18.8575 5.31425 18.8405 5.14191 18.8736 4.97564C18.9067 4.80937 18.9883 4.65664 19.1082 4.53677C19.2281 4.41689 19.3808 4.33526 19.5471 4.30218C19.7133 4.26911 19.8857 4.28609 20.0423 4.35096C20.1989 4.41584 20.3328 4.5257 20.427 4.66665C20.5212 4.80761 20.5714 4.97333 20.5714 5.14286C20.5714 5.37019 20.4811 5.5882 20.3204 5.74895C20.1596 5.90969 19.9416 6 19.7143 6Z" fill="#707070"/>
<path d="M19.7143 18C21.1344 18 22.2857 16.8487 22.2857 15.4286C22.2857 14.0084 21.1344 12.8571 19.7143 12.8571C18.2941 12.8571 17.1429 14.0084 17.1429 15.4286C17.1429 16.8487 18.2941 18 19.7143 18Z" fill="#707070"/>
<path d="M21.4286 18.8571H18C17.318 18.8571 16.664 19.1281 16.1817 19.6103C15.6995 20.0925 15.4286 20.7466 15.4286 21.4286V23.1429C15.4286 23.3702 15.5189 23.5882 15.6796 23.7489C15.8404 23.9097 16.0584 24 16.2857 24H23.1429C23.3702 24 23.5882 23.9097 23.7489 23.7489C23.9097 23.5882 24 23.3702 24 23.1429V21.4286C24 20.7466 23.7291 20.0925 23.2468 19.6103C22.7646 19.1281 22.1106 18.8571 21.4286 18.8571Z" fill="#707070"/>
</svg>
