<svg width="34" height="34" viewBox="0 0 34 34" fill="none" xmlns="http://www.w3.org/2000/svg">
<circle cx="17" cy="17" r="17" fill="#EDFFE4"/>
<g clip-path="url(#clip0_2010_4849)">
<path d="M11.047 21.2097L11.3338 21.4116L11.6206 21.2097C11.7246 21.1365 14.1677 19.3902 14.1677 17.1507C14.1677 15.5881 12.8964 14.3169 11.3338 14.3169C9.77125 14.3169 8.5 15.5881 8.5 17.1507C8.5 19.3902 10.9431 21.1365 11.047 21.2097ZM10.8358 16.6116H11.8319V17.6077H10.8358V16.6116Z" fill="#1F4A0B"/>
<path d="M15.1022 17.7416C15.1022 18.7827 15.9491 19.6296 16.9902 19.6296H18.7705C19.2623 19.6296 19.6624 20.0297 19.6624 20.5215C19.6624 21.0133 19.2623 21.4134 18.7705 21.4134H9.20801V22.4095H18.7705C19.8116 22.4095 20.6585 21.5626 20.6585 20.5215C20.6585 19.4805 19.8116 18.6335 18.7705 18.6335H16.9902C16.4984 18.6335 16.0983 18.2334 16.0983 17.7416C16.0983 17.2498 16.4984 16.8497 16.9902 16.8497H24.7913V15.8536H16.9902C15.9491 15.8536 15.1022 16.7006 15.1022 17.7416Z" fill="#1F4A0B"/>
<path d="M22.3787 15.6498L22.6654 15.8518L22.9522 15.6498C23.0562 15.5766 25.4992 13.8304 25.4992 11.5909C25.4992 10.0283 24.228 8.75708 22.6654 8.75708C21.1028 8.75708 19.8315 10.0283 19.8315 11.5909C19.8316 13.8304 22.2746 15.5766 22.3787 15.6498ZM23.1634 12.0479H22.1673V11.0518H23.1634V12.0479Z" fill="#1F4A0B"/>
</g>
<defs>
<clipPath id="clip0_2010_4849">
<rect width="17" height="17" fill="white" transform="translate(8.5 7.08337)"/>
</clipPath>
</defs>
</svg>
