<svg width="34" height="34" viewBox="0 0 34 34" fill="none" xmlns="http://www.w3.org/2000/svg">
<circle cx="17" cy="17" r="17" fill="#EDFFE4"/>
<path d="M19.7332 12.315L20.5983 12.8388C20.6743 12.8849 20.7581 12.9068 20.841 12.9068C20.9997 12.9068 21.1546 12.8262 21.2428 12.6805C21.3771 12.4588 21.3062 12.1703 21.0845 12.036L21.001 11.9854L21.1317 11.9684C21.3887 11.9352 21.5702 11.6998 21.5369 11.4428C21.5036 11.1857 21.2682 11.0045 21.0112 11.0376C21.0112 11.0376 19.5435 11.2562 19.4834 11.2749C19.5257 11.6738 19.6128 12.0137 19.7332 12.315Z" fill="#1F4A0B"/>
<path d="M20.3493 14.7277C19.6831 14.037 19.0009 13.3283 18.6898 12.1476C18.6879 12.1476 18.686 12.1479 18.6841 12.1479H15.3162C15.3143 12.1479 15.3124 12.1476 15.3105 12.1476C14.9994 13.3283 14.3172 14.037 13.651 14.7277C12.8017 15.5433 12.0581 16.6936 12.0581 18.0866C12.3214 24.6407 21.6818 24.6348 21.9422 18.0866C21.9422 16.6936 21.1986 15.5433 20.3493 14.7277ZM17.4835 20.2192V20.2638C17.4835 20.5231 17.2733 20.7332 17.0141 20.7332C16.7548 20.7332 16.5447 20.5231 16.5447 20.2638V20.2199C16.1662 20.0895 15.8525 19.8039 15.6905 19.4211C15.5896 19.1823 15.7013 18.9069 15.94 18.8059C16.1788 18.7049 16.4542 18.8166 16.5552 19.0554C16.6334 19.2401 16.8135 19.3596 17.0141 19.3596C17.2886 19.3596 17.5119 19.1362 17.5119 18.8617C17.5119 18.5872 17.2886 18.3639 17.0141 18.3639C16.2219 18.3639 15.5775 17.7195 15.5775 16.9273C15.5775 16.2995 15.9824 15.7649 16.5447 15.5699V15.501C16.5447 15.2417 16.7549 15.0316 17.0141 15.0316C17.2734 15.0316 17.4835 15.2417 17.4835 15.501V15.5691C17.6799 15.6369 17.8607 15.7472 18.0138 15.8956C18.2 16.0761 18.2046 16.3732 18.0242 16.5594C17.8438 16.7456 17.5466 16.7502 17.3604 16.5698C17.2671 16.4793 17.1441 16.4295 17.0141 16.4295C16.7396 16.4295 16.5163 16.6528 16.5163 16.9273C16.5163 17.2018 16.7396 17.4251 17.0141 17.4251C17.8063 17.4251 18.4507 18.0696 18.4507 18.8618C18.4507 19.4895 18.0458 20.0242 17.4835 20.2192Z" fill="#1F4A0B"/>
<path d="M19.7225 8.38208C19.5112 7.85889 19.0289 7.53758 18.4323 7.52252C18.4283 7.52242 18.4243 7.52236 18.4204 7.52236C18.3203 7.52236 18.2217 7.5327 18.1255 7.55305C17.8852 7.18067 17.4416 6.99658 17.0003 7.00005C16.5652 7.00345 16.1323 7.18902 15.8984 7.55686C15.7919 7.53205 15.6818 7.5183 15.57 7.51983C14.9796 7.5243 14.4827 7.85977 14.2733 8.39533C14.0449 8.97955 14.205 9.66592 14.6716 10.1033C15.0202 10.43 15.2971 10.9333 15.4238 11.2093H18.5853C18.6873 10.9771 18.9343 10.5088 19.3467 10.0902C19.8058 9.6242 19.9533 8.95374 19.7225 8.38208Z" fill="#1F4A0B"/>
</svg>
