<svg width="34" height="34" viewBox="0 0 34 34" fill="none" xmlns="http://www.w3.org/2000/svg">
<circle cx="17" cy="17" r="17" fill="#EDFFE4"/>
<g clip-path="url(#clip0_2010_4864)">
<path d="M19.0002 11.3334C18.6322 11.3334 18.3335 11.0347 18.3335 10.6667V9.66671H15.6668V10.6667C15.6668 11.0347 15.3682 11.3334 15.0002 11.3334C14.6322 11.3334 14.3335 11.0347 14.3335 10.6667V9.66671C14.3335 8.93137 14.9315 8.33337 15.6668 8.33337H18.3335C19.0688 8.33337 19.6668 8.93137 19.6668 9.66671V10.6667C19.6668 11.0347 19.3682 11.3334 19.0002 11.3334Z" fill="#1F4A0B"/>
<path d="M17.4733 17.2534C17.3533 17.3 17.18 17.3334 17 17.3334C16.82 17.3334 16.6467 17.3 16.4867 17.24L9 14.7467V19.8334C9 20.8467 9.82 21.6667 10.8333 21.6667H23.1667C24.18 21.6667 25 20.8467 25 19.8334V14.7467L17.4733 17.2534Z" fill="#1F4A0B"/>
<path d="M25 12.1667V13.6934L17.16 16.3067C17.1067 16.3267 17.0533 16.3334 17 16.3334C16.9467 16.3334 16.8933 16.3267 16.84 16.3067L9 13.6934V12.1667C9 11.1534 9.82 10.3334 10.8333 10.3334H23.1667C24.18 10.3334 25 11.1534 25 12.1667Z" fill="#1F4A0B"/>
</g>
<defs>
<clipPath id="clip0_2010_4864">
<rect width="16" height="16" fill="white" transform="translate(9 7)"/>
</clipPath>
</defs>
</svg>
