<svg width="34" height="34" viewBox="0 0 34 34" fill="none" xmlns="http://www.w3.org/2000/svg">
<circle cx="17" cy="17" r="17" fill="#EDFFE4"/>
<path d="M12.1905 20.1125H21.8092L22.4783 17.1017C22.5091 16.9629 22.4753 16.8176 22.3863 16.7067C22.2974 16.5958 22.1629 16.5312 22.0207 16.5312H11.979C11.8368 16.5312 11.7023 16.5958 11.6134 16.7067C11.5244 16.8176 11.4906 16.9629 11.5214 17.1017L12.1905 20.1125ZM16.9998 18.3219C17.2586 18.3219 17.4686 18.5319 17.4686 18.7906C17.4686 19.0493 17.2586 19.2594 16.9998 19.2594C16.7411 19.2594 16.5311 19.0493 16.5311 18.7906C16.5311 18.5319 16.7411 18.3219 16.9998 18.3219Z" fill="#1F4A0B"/>
<path d="M17 14.4896C18.2387 14.4896 19.2428 13.4855 19.2428 12.2469C19.2428 11.0082 18.2387 10.0042 17 10.0042C15.7614 10.0042 14.7573 11.0082 14.7573 12.2469C14.7573 13.4855 15.7614 14.4896 17 14.4896Z" fill="#1F4A0B"/>
<path d="M18.0042 14.4896H17.0001H15.9959C15.0631 14.4896 14.2293 14.9206 13.6826 15.5938H20.3175C19.7708 14.9206 18.937 14.4896 18.0042 14.4896Z" fill="#1F4A0B"/>
<path d="M24.5312 21.05H9.46875C9.20987 21.05 9 21.2599 9 21.5188V23.5271C9 23.786 9.20987 23.9959 9.46875 23.9959H24.5312C24.7901 23.9959 25 23.786 25 23.5271V21.5188C25 21.2599 24.7901 21.05 24.5312 21.05Z" fill="#1F4A0B"/>
</svg>
