<svg width="34" height="34" viewBox="0 0 34 34" fill="none" xmlns="http://www.w3.org/2000/svg">
<circle cx="17" cy="17" r="17" fill="#EDFFE4"/>
<path d="M10.4475 8.88806C10.447 8.88806 10.4465 8.88806 10.4461 8.88806C10.2948 8.88806 10.1525 8.94705 10.045 9.05426C9.93632 9.16265 9.87646 9.30697 9.87646 9.46062V18.046C9.87646 18.3608 10.1336 18.6175 10.4497 18.6184C11.7824 18.6215 14.0152 18.8993 15.5555 20.5112V11.5264C15.5555 11.4197 15.5283 11.3194 15.4768 11.2365C14.2126 9.20052 11.7832 8.89119 10.4475 8.88806Z" fill="#1F4A0B"/>
<path d="M22.1233 18.046V9.46062C22.1233 9.30697 22.0635 9.16265 21.9548 9.05426C21.8473 8.94705 21.7049 8.88806 21.5537 8.88806C21.5533 8.88806 21.5528 8.88806 21.5523 8.88806C20.2167 8.89124 17.7873 9.20057 16.523 11.2365C16.4715 11.3195 16.4443 11.4197 16.4443 11.5265V20.5112C17.9847 18.8993 20.2174 18.6215 21.5501 18.6184C21.8662 18.6175 22.1233 18.3608 22.1233 18.046Z" fill="#1F4A0B"/>
<path d="M23.4277 10.868H23.0126V18.046C23.0126 18.8499 22.3577 19.5053 21.5526 19.5073C20.4222 19.51 18.5583 19.731 17.2383 20.9804C19.5213 20.4214 21.928 20.7848 23.2996 21.0974C23.4708 21.1364 23.6478 21.0961 23.785 20.9867C23.9217 20.8776 24.0002 20.7145 24.0002 20.5395V11.4405C24.0002 11.1249 23.7434 10.868 23.4277 10.868Z" fill="#1F4A0B"/>
<path d="M8.98759 18.046V10.868H8.57245C8.25686 10.868 8 11.1249 8 11.4405V20.5393C8 20.7144 8.07844 20.8775 8.21517 20.9865C8.35227 21.0958 8.52908 21.1363 8.70061 21.0972C10.0722 20.7846 12.4789 20.4213 14.7618 20.9802C13.4418 19.7309 11.578 19.51 10.4476 19.5073C9.64256 19.5053 8.98759 18.8499 8.98759 18.046Z" fill="#1F4A0B"/>
</svg>
