<svg width="25" height="24" viewBox="0 0 25 24" fill="none" xmlns="http://www.w3.org/2000/svg">
<g clip-path="url(#clip0_405_5491)">
<path fill-rule="evenodd" clip-rule="evenodd" d="M24.25 22.9091H18.9457V15.2392C18.9457 13.2316 18.116 11.861 16.2914 11.861C14.8958 11.861 14.1197 12.7859 13.7585 13.6772C13.623 13.9972 13.6442 14.4428 13.6442 14.8885V22.9091H8.38924C8.38924 22.9091 8.45697 9.32254 8.38924 8.08752H13.6442V10.4137C13.9546 9.39658 15.6338 7.94501 18.3135 7.94501C21.638 7.94501 24.25 10.077 24.25 14.6678V22.9091ZM3.07502 6.23359H3.04116C1.34784 6.23359 0.25 5.10055 0.25 3.66436C0.25 2.20022 1.38029 1.09094 3.10748 1.09094C4.83325 1.09094 5.8944 2.19744 5.92827 3.66018C5.92827 5.09638 4.83325 6.23359 3.07502 6.23359ZM0.855347 8.08752H5.53316V22.9091H0.855347V8.08752Z" fill="#007EBB"/>
</g>
<defs>
<clipPath id="clip0_405_5491">
<rect width="24" height="24" fill="white" transform="translate(0.25)"/>
</clipPath>
</defs>
</svg>
