<svg width="152" height="37" viewBox="0 0 152 37" fill="none" xmlns="http://www.w3.org/2000/svg">
<path d="M36.3612 18.1807L27.2709 33.9255H9.0903L0 18.1807L9.0903 2.43579L27.2709 2.43579L36.3612 18.1807Z" fill="#70DF42"/>
<path d="M7.90234 23.7357V12.4233H12.5081C13.7148 12.4233 14.7706 12.6657 15.6756 13.1506C16.5913 13.6246 17.3024 14.2872 17.8088 15.1383C18.3151 15.9894 18.5683 16.9698 18.5683 18.0795C18.5683 19.1892 18.3151 20.1696 17.8088 21.0207C17.3024 21.8719 16.5913 22.5398 15.6756 23.0247C14.7706 23.4987 13.7148 23.7357 12.5081 23.7357H7.90234ZM9.09822 22.7014H12.4435C13.4454 22.7014 14.3127 22.5075 15.0453 22.1197C15.7887 21.721 16.3651 21.177 16.7745 20.4874C17.1839 19.7872 17.3886 18.9845 17.3886 18.0795C17.3886 17.1638 17.1839 16.3611 16.7745 15.6716C16.3651 14.9821 15.7887 14.4434 15.0453 14.0556C14.3127 13.6569 13.4454 13.4576 12.4435 13.4576H9.09822V22.7014Z" fill="white"/>
<path d="M23.1768 17.5139H28.6068V19.6148H23.1768V17.5139ZM23.3708 23.7357H20.7527V12.4233H29.3017V14.5242H23.3708V23.7357Z" fill="white"/>
<path d="M42.3198 23.2307V10.4414H47.7096C49.0738 10.4414 50.2735 10.7094 51.3089 11.2453C52.3564 11.7812 53.1663 12.5303 53.7388 13.4926C54.3235 14.4548 54.6158 15.5693 54.6158 16.836C54.6158 18.1028 54.3235 19.2173 53.7388 20.1795C53.1663 21.1418 52.3564 21.8908 51.3089 22.4268C50.2735 22.9627 49.0738 23.2307 47.7096 23.2307H42.3198ZM44.1469 21.6412H47.6C48.6596 21.6412 49.5732 21.4402 50.3405 21.0382C51.1201 20.6363 51.723 20.076 52.1493 19.3574C52.5756 18.6265 52.7888 17.7861 52.7888 16.836C52.7888 15.8738 52.5756 15.0334 52.1493 14.3147C51.723 13.5961 51.1201 13.0358 50.3405 12.6339C49.5732 12.2319 48.6596 12.0309 47.6 12.0309H44.1469V21.6412Z" fill="#040704"/>
<path d="M63.1695 23.2307V21.1844L63.0781 20.8007V17.3111C63.0781 16.5681 62.8589 15.9956 62.4204 15.5937C61.9941 15.1795 61.3485 14.9725 60.4837 14.9725C59.9113 14.9725 59.351 15.0699 58.8029 15.2648C58.2547 15.4475 57.7919 15.6972 57.4143 16.0139L56.6835 14.6984C57.1829 14.2965 57.7797 13.992 58.474 13.7849C59.1804 13.5656 59.9173 13.456 60.6847 13.456C62.0123 13.456 63.0355 13.7788 63.7541 14.4244C64.4728 15.0699 64.8321 16.0565 64.8321 17.3842V23.2307H63.1695ZM59.9904 23.3403C59.2718 23.3403 58.6384 23.2185 58.0903 22.9749C57.5544 22.7313 57.1402 22.3963 56.8479 21.97C56.5556 21.5315 56.4094 21.0382 56.4094 20.4901C56.4094 19.9664 56.5312 19.4913 56.7748 19.065C57.0306 18.6387 57.4387 18.2977 57.999 18.0419C58.5714 17.7861 59.3388 17.6582 60.301 17.6582H63.3704V18.9189H60.3741C59.4971 18.9189 58.9064 19.065 58.6019 19.3574C58.2974 19.6497 58.1451 20.0029 58.1451 20.417C58.1451 20.8921 58.3339 21.2757 58.7115 21.5681C59.0891 21.8482 59.6128 21.9883 60.2828 21.9883C60.9405 21.9883 61.513 21.8421 62.0002 21.5498C62.4996 21.2575 62.8589 20.8312 63.0781 20.2709L63.4253 21.4767C63.1938 22.0492 62.7858 22.5059 62.2011 22.847C61.6165 23.1759 60.8796 23.3403 59.9904 23.3403Z" fill="#040704"/>
<path d="M71.4031 23.3403C70.4287 23.3403 69.6735 23.0784 69.1376 22.5547C68.6017 22.0309 68.3337 21.2818 68.3337 20.3074V11.428H70.0877V20.2343C70.0877 20.7581 70.2156 21.16 70.4713 21.4402C70.7393 21.7203 71.1169 21.8604 71.6041 21.8604C72.1522 21.8604 72.609 21.7081 72.9744 21.4036L73.5225 22.6643C73.2545 22.8957 72.9318 23.0662 72.5542 23.1759C72.1888 23.2855 71.8051 23.3403 71.4031 23.3403ZM66.6894 14.9907V13.5474H72.8648V14.9907H66.6894Z" fill="#040704"/>
<path d="M81.654 23.2307V21.1844L81.5626 20.8007V17.3111C81.5626 16.5681 81.3434 15.9956 80.9049 15.5937C80.4786 15.1795 79.833 14.9725 78.9682 14.9725C78.3957 14.9725 77.8355 15.0699 77.2873 15.2648C76.7392 15.4475 76.2764 15.6972 75.8988 16.0139L75.168 14.6984C75.6674 14.2965 76.2642 13.992 76.9585 13.7849C77.6649 13.5656 78.4018 13.456 79.1692 13.456C80.4968 13.456 81.52 13.7788 82.2386 14.4244C82.9572 15.0699 83.3166 16.0565 83.3166 17.3842V23.2307H81.654ZM78.4749 23.3403C77.7563 23.3403 77.1229 23.2185 76.5748 22.9749C76.0389 22.7313 75.6247 22.3963 75.3324 21.97C75.0401 21.5315 74.8939 21.0382 74.8939 20.4901C74.8939 19.9664 75.0157 19.4913 75.2593 19.065C75.5151 18.6387 75.9232 18.2977 76.4834 18.0419C77.0559 17.7861 77.8233 17.6582 78.7855 17.6582H81.8549V18.9189H78.8586C77.9816 18.9189 77.3909 19.065 77.0864 19.3574C76.7819 19.6497 76.6296 20.0029 76.6296 20.417C76.6296 20.8921 76.8184 21.2757 77.196 21.5681C77.5736 21.8482 78.0973 21.9883 78.7672 21.9883C79.425 21.9883 79.9974 21.8421 80.4847 21.5498C80.984 21.2575 81.3434 20.8312 81.5626 20.2709L81.9097 21.4767C81.6783 22.0492 81.2703 22.5059 80.6856 22.847C80.101 23.1759 79.3641 23.3403 78.4749 23.3403Z" fill="#040704"/>
<path d="M91.12 16.1966H97.2588V18.5717H91.12V16.1966ZM91.3392 23.2307H88.3794V10.4414H98.0444V12.8166H91.3392V23.2307Z" fill="#70DF42"/>
<path d="M99.6688 23.2307V13.4012H102.391V16.1783L102.007 15.3744C102.3 14.6801 102.769 14.1564 103.414 13.8032C104.06 13.4377 104.845 13.255 105.771 13.255V15.886C105.649 15.8738 105.54 15.8677 105.442 15.8677C105.345 15.8555 105.241 15.8494 105.132 15.8494C104.352 15.8494 103.719 16.0748 103.232 16.5254C102.756 16.9639 102.519 17.6521 102.519 18.59V23.2307H99.6688Z" fill="#70DF42"/>
<path d="M112.273 23.3768C111.152 23.3768 110.165 23.1576 109.313 22.7191C108.472 22.2806 107.821 21.6838 107.358 20.9286C106.895 20.1613 106.664 19.2904 106.664 18.3159C106.664 17.3293 106.889 16.4585 107.34 15.7033C107.802 14.9359 108.43 14.3391 109.221 13.9128C110.013 13.4743 110.908 13.255 111.907 13.255C112.869 13.255 113.734 13.4621 114.502 13.8762C115.281 14.2782 115.896 14.8628 116.347 15.6302C116.798 16.3854 117.023 17.2928 117.023 18.3525C117.023 18.4621 117.017 18.59 117.005 18.7362C116.992 18.8701 116.98 18.998 116.968 19.1198H108.984V17.4572H115.47L114.374 17.9505C114.374 17.439 114.27 16.9944 114.063 16.6168C113.856 16.2392 113.57 15.9469 113.204 15.7398C112.839 15.5206 112.413 15.411 111.925 15.411C111.438 15.411 111.006 15.5206 110.628 15.7398C110.263 15.9469 109.977 16.2453 109.77 16.6351C109.563 17.0127 109.459 17.4633 109.459 17.9871V18.4256C109.459 18.9615 109.575 19.4365 109.806 19.8507C110.05 20.2526 110.385 20.5632 110.811 20.7824C111.249 20.9895 111.761 21.093 112.346 21.093C112.869 21.093 113.326 21.0139 113.716 20.8555C114.118 20.6972 114.483 20.4597 114.812 20.143L116.329 21.7873C115.878 22.2989 115.312 22.6947 114.63 22.9749C113.947 23.2429 113.162 23.3768 112.273 23.3768Z" fill="#70DF42"/>
<path d="M124.895 13.255C125.674 13.255 126.369 13.4134 126.978 13.7301C127.599 14.0346 128.086 14.5096 128.439 15.1552C128.793 15.7885 128.969 16.6046 128.969 17.6034V23.2307H126.119V18.0419C126.119 17.2502 125.942 16.6655 125.589 16.2879C125.248 15.9103 124.761 15.7215 124.128 15.7215C123.677 15.7215 123.269 15.819 122.903 16.0139C122.55 16.1966 122.27 16.4828 122.063 16.8726C121.868 17.2623 121.771 17.7617 121.771 18.3708V23.2307H118.92V13.4012H121.643V16.1235L121.131 15.3013C121.484 14.6436 121.99 14.1381 122.648 13.7849C123.305 13.4317 124.054 13.255 124.895 13.255Z" fill="#70DF42"/>
<path d="M130.877 23.2307V21.5133L136.687 14.6436L137.18 15.5937H131.005V13.4012H139.482V15.1186L133.672 21.9883L133.161 21.0382H139.647V23.2307H130.877Z" fill="#70DF42"/>
<path d="M142.537 26.9213C142.025 26.9213 141.52 26.8421 141.021 26.6838C140.521 26.5254 140.113 26.3062 139.796 26.026L140.838 23.998C141.057 24.1929 141.307 24.3452 141.587 24.4548C141.879 24.5644 142.165 24.6192 142.446 24.6192C142.848 24.6192 143.164 24.5218 143.396 24.3269C143.639 24.1442 143.859 23.8336 144.053 23.3951L144.565 22.1893L144.784 21.8787L148.31 13.4012H151.051L146.611 23.8336C146.295 24.6253 145.929 25.2465 145.515 25.6972C145.113 26.1478 144.662 26.4645 144.163 26.6472C143.676 26.8299 143.134 26.9213 142.537 26.9213ZM144.218 23.6144L139.833 13.4012H142.774L146.173 21.6229L144.218 23.6144Z" fill="#70DF42"/>
</svg>
