<svg width="223" height="53" viewBox="0 0 223 53" fill="none" xmlns="http://www.w3.org/2000/svg">
<path d="M53.4582 26.7291L40.0936 49.8772H13.3645L0 26.7291L13.3645 3.58105L40.0936 3.58106L53.4582 26.7291Z" fill="#70DF42"/>
<path d="M11.6182 34.8963V18.2649H18.3895C20.1636 18.2649 21.7158 18.6213 23.0463 19.3341C24.3927 20.031 25.4381 21.0051 26.1826 22.2564C26.927 23.5078 27.2992 24.9491 27.2992 26.5806C27.2992 28.2121 26.927 29.6535 26.1826 30.9048C25.4381 32.1561 24.3927 33.1382 23.0463 33.8509C21.7158 34.5479 20.1636 34.8963 18.3895 34.8963H11.6182ZM13.3763 33.3757H18.2945C19.7676 33.3757 21.0426 33.0906 22.1197 32.5204C23.2127 31.9344 24.0601 31.1345 24.662 30.1207C25.2639 29.0912 25.5648 27.9111 25.5648 26.5806C25.5648 25.2343 25.2639 24.0542 24.662 23.0405C24.0601 22.0268 23.2127 21.2348 22.1197 20.6646C21.0426 20.0785 19.7676 19.7855 18.2945 19.7855H13.3763V33.3757Z" fill="white"/>
<path d="M34.0747 25.749H42.0578V28.8377H34.0747V25.749ZM34.3598 34.8963H30.5108V18.2649H43.0794V21.3536H34.3598V34.8963Z" fill="white"/>
<path d="M62.2188 34.1538V15.3511H70.1428C72.1484 15.3511 73.9123 15.745 75.4344 16.533C76.9744 17.3209 78.1653 18.4222 79.0069 19.8369C79.8665 21.2516 80.2963 22.8901 80.2963 24.7525C80.2963 26.6148 79.8665 28.2534 79.0069 29.668C78.1653 31.0827 76.9744 32.184 75.4344 32.972C73.9123 33.7599 72.1484 34.1538 70.1428 34.1538H62.2188ZM64.9049 31.8169H69.9816C71.5395 31.8169 72.8826 31.5215 74.0108 30.9305C75.1568 30.3396 76.0433 29.5158 76.67 28.4593C77.2968 27.3848 77.6102 26.1492 77.6102 24.7525C77.6102 23.3378 77.2968 22.1022 76.67 21.0456C76.0433 19.9891 75.1568 19.1653 74.0108 18.5744C72.8826 17.9835 71.5395 17.688 69.9816 17.688H64.9049V31.8169Z" fill="#040704"/>
<path d="M92.8719 34.1538V31.1454L92.7376 30.5813V25.4508C92.7376 24.3585 92.4152 23.5168 91.7706 22.9259C91.1438 22.3171 90.1947 22.0126 88.9233 22.0126C88.0816 22.0126 87.2579 22.1559 86.4521 22.4424C85.6462 22.711 84.9658 23.0781 84.4106 23.5437L83.3362 21.6097C84.0704 21.0188 84.9478 20.5711 85.9686 20.2667C87.0072 19.9443 88.0906 19.7832 89.2188 19.7832C91.1707 19.7832 92.6749 20.2577 93.7314 21.2068C94.788 22.1559 95.3162 23.6064 95.3162 25.5583V34.1538H92.8719ZM88.198 34.315C87.1415 34.315 86.2103 34.1359 85.4045 33.7778C84.6166 33.4196 84.0077 32.9272 83.5779 32.3004C83.1482 31.6558 82.9333 30.9305 82.9333 30.1247C82.9333 29.3547 83.1123 28.6563 83.4705 28.0295C83.8465 27.4028 84.4464 26.9013 85.2702 26.5253C86.1118 26.1492 87.24 25.9612 88.6547 25.9612H93.1673V27.8146H88.7621C87.4728 27.8146 86.6043 28.0295 86.1566 28.4593C85.7089 28.8891 85.4851 29.4084 85.4851 30.0172C85.4851 30.7156 85.7626 31.2797 86.3178 31.7095C86.8729 32.1213 87.6429 32.3273 88.6278 32.3273C89.5948 32.3273 90.4365 32.1124 91.1528 31.6826C91.887 31.2528 92.4152 30.6261 92.7376 29.8023L93.2479 31.5752C92.9077 32.4168 92.3078 33.0884 91.4482 33.5898C90.5887 34.0733 89.5053 34.315 88.198 34.315Z" fill="#040704"/>
<path d="M104.977 34.315C103.544 34.315 102.434 33.93 101.646 33.16C100.858 32.39 100.464 31.2887 100.464 29.8561V16.8016H103.043V29.7486C103.043 30.5186 103.231 31.1096 103.607 31.5215C104.001 31.9333 104.556 32.1393 105.272 32.1393C106.078 32.1393 106.75 31.9154 107.287 31.4677L108.093 33.3211C107.699 33.6614 107.224 33.9121 106.669 34.0733C106.132 34.2344 105.568 34.315 104.977 34.315ZM98.0468 22.0395V19.9175H107.126V22.0395H98.0468Z" fill="#040704"/>
<path d="M120.048 34.1538V31.1454L119.913 30.5813V25.4508C119.913 24.3585 119.591 23.5168 118.946 22.9259C118.32 22.3171 117.371 22.0126 116.099 22.0126C115.258 22.0126 114.434 22.1559 113.628 22.4424C112.822 22.711 112.142 23.0781 111.587 23.5437L110.512 21.6097C111.246 21.0188 112.124 20.5711 113.144 20.2667C114.183 19.9443 115.266 19.7832 116.395 19.7832C118.347 19.7832 119.851 20.2577 120.907 21.2068C121.964 22.1559 122.492 23.6064 122.492 25.5583V34.1538H120.048ZM115.374 34.315C114.317 34.315 113.386 34.1359 112.58 33.7778C111.792 33.4196 111.184 32.9272 110.754 32.3004C110.324 31.6558 110.109 30.9305 110.109 30.1247C110.109 29.3547 110.288 28.6563 110.646 28.0295C111.022 27.4028 111.622 26.9013 112.446 26.5253C113.288 26.1492 114.416 25.9612 115.831 25.9612H120.343V27.8146H115.938C114.649 27.8146 113.78 28.0295 113.332 28.4593C112.885 28.8891 112.661 29.4084 112.661 30.0172C112.661 30.7156 112.939 31.2797 113.494 31.7095C114.049 32.1213 114.819 32.3273 115.804 32.3273C116.771 32.3273 117.612 32.1124 118.329 31.6826C119.063 31.2528 119.591 30.6261 119.913 29.8023L120.424 31.5752C120.084 32.4168 119.484 33.0884 118.624 33.5898C117.765 34.0733 116.681 34.315 115.374 34.315Z" fill="#040704"/>
<path d="M133.965 23.8123H142.99V27.3043H133.965V23.8123ZM134.287 34.1538H129.936V15.3511H144.145V18.843H134.287V34.1538Z" fill="#70DF42"/>
<path d="M146.533 34.1538V19.7026H150.535V23.7855L149.971 22.6036C150.401 21.5828 151.091 20.8128 152.04 20.2935C152.989 19.7563 154.144 19.4877 155.505 19.4877V23.3557C155.326 23.3378 155.165 23.3288 155.021 23.3288C154.878 23.3109 154.726 23.302 154.565 23.302C153.419 23.302 152.487 23.6332 151.771 24.2958C151.073 24.9405 150.724 25.9523 150.724 27.3311V34.1538H146.533Z" fill="#70DF42"/>
<path d="M165.063 34.3687C163.416 34.3687 161.965 34.0464 160.712 33.4017C159.476 32.7571 158.518 31.8796 157.838 30.7693C157.157 29.6412 156.817 28.3608 156.817 26.9282C156.817 25.4777 157.148 24.1973 157.811 23.0871C158.491 21.9589 159.414 21.0814 160.578 20.4547C161.742 19.81 163.058 19.4877 164.526 19.4877C165.941 19.4877 167.212 19.7921 168.34 20.401C169.486 20.9919 170.391 21.8515 171.053 22.9796C171.716 24.0899 172.047 25.424 172.047 26.9819C172.047 27.1431 172.038 27.3311 172.02 27.546C172.002 27.743 171.985 27.931 171.967 28.1101H160.228V25.6657H169.764L168.152 26.391C168.152 25.6389 168 24.9853 167.696 24.4301C167.391 23.875 166.97 23.4452 166.433 23.1408C165.896 22.8185 165.269 22.6573 164.553 22.6573C163.837 22.6573 163.201 22.8185 162.646 23.1408C162.109 23.4452 161.688 23.8839 161.383 24.457C161.079 25.0121 160.927 25.6747 160.927 26.4447V27.0894C160.927 27.8773 161.097 28.5757 161.437 29.1845C161.795 29.7755 162.288 30.2321 162.914 30.5545C163.559 30.8589 164.311 31.0111 165.171 31.0111C165.941 31.0111 166.612 30.8947 167.185 30.6619C167.776 30.4291 168.314 30.0799 168.797 29.6143L171.027 32.0318C170.364 32.7839 169.531 33.3659 168.528 33.7778C167.526 34.1717 166.371 34.3687 165.063 34.3687Z" fill="#70DF42"/>
<path d="M183.621 19.4877C184.767 19.4877 185.787 19.7205 186.683 20.1861C187.596 20.6338 188.312 21.3321 188.832 22.2812C189.351 23.2124 189.611 24.4122 189.611 25.8806V34.1538H185.42V26.5253C185.42 25.3613 185.161 24.5018 184.641 23.9466C184.14 23.3915 183.424 23.1139 182.492 23.1139C181.83 23.1139 181.23 23.2572 180.693 23.5437C180.173 23.8123 179.762 24.2331 179.457 24.8062C179.171 25.3792 179.027 26.1134 179.027 27.0088V34.1538H174.837V19.7026H178.839V23.7049L178.087 22.4961C178.607 21.5291 179.35 20.786 180.317 20.2667C181.284 19.7473 182.385 19.4877 183.621 19.4877Z" fill="#70DF42"/>
<path d="M192.415 34.1538V31.6289L200.957 21.5291L201.682 22.9259H192.603V19.7026H205.067V22.2275L196.525 32.3273L195.773 30.9305H205.308V34.1538H192.415Z" fill="#70DF42"/>
<path d="M209.558 39.5798C208.806 39.5798 208.063 39.4634 207.328 39.2306C206.594 38.9978 205.994 38.6755 205.529 38.2636L207.06 35.282C207.382 35.5685 207.749 35.7924 208.161 35.9535C208.591 36.1147 209.012 36.1953 209.424 36.1953C210.015 36.1953 210.48 36.052 210.82 35.7655C211.179 35.4969 211.501 35.0403 211.787 34.3956L212.539 32.6228L212.862 32.1661L218.046 19.7026H222.075L215.548 35.0403C215.082 36.2042 214.545 37.1175 213.936 37.7801C213.345 38.4427 212.683 38.9083 211.949 39.1769C211.232 39.4455 210.435 39.5798 209.558 39.5798ZM212.029 34.7179L205.582 19.7026H209.907L214.903 31.7901L212.029 34.7179Z" fill="#70DF42"/>
</svg>
