<svg width="15" height="16" viewBox="0 0 15 16" fill="none" xmlns="http://www.w3.org/2000/svg">
<g id="fi_14034143">
<g id="&#229;&#155;&#190;&#229;&#177;&#130;_x0020_1">
<path id="Vector" fill-rule="evenodd" clip-rule="evenodd" d="M7.50019 1.4397C10.3587 1.4397 12.6762 3.75698 12.6762 6.6155C12.6762 8.80948 9.62734 12.5942 8.20951 14.2356C8.02515 14.4491 7.78232 14.5602 7.50019 14.5602C7.21805 14.5602 6.97522 14.4491 6.79086 14.2356C5.37303 12.5942 2.32422 8.80948 2.32422 6.6155C2.32422 3.75698 4.64166 1.4397 7.50019 1.4397ZM7.50019 4.55915C8.584 4.55915 9.46291 5.43806 9.46291 6.52199C9.46291 7.60575 8.584 8.4846 7.50019 8.4846C6.41637 8.4846 5.53746 7.60575 5.53746 6.52199C5.53746 5.43806 6.41637 4.55915 7.50019 4.55915Z" fill="#707070"/>
</g>
</g>
</svg>
