<svg width="15" height="15" viewBox="0 0 15 15" fill="none" xmlns="http://www.w3.org/2000/svg">
<g id="fi_14034143">
<g id="&#229;&#155;&#190;&#229;&#177;&#130;_x0020_1">
<path id="Vector" fill-rule="evenodd" clip-rule="evenodd" d="M7.49994 0.939697C10.3585 0.939697 12.6759 3.25698 12.6759 6.1155C12.6759 8.30948 9.6271 12.0942 8.20927 13.7356C8.02491 13.9491 7.78208 14.0602 7.49994 14.0602C7.2178 14.0602 6.97498 13.9491 6.79061 13.7356C5.37278 12.0942 2.32397 8.30948 2.32397 6.1155C2.32397 3.25698 4.64142 0.939697 7.49994 0.939697ZM7.49994 4.05915C8.58376 4.05915 9.46267 4.93806 9.46267 6.02199C9.46267 7.10575 8.58376 7.9846 7.49994 7.9846C6.41613 7.9846 5.53722 7.10575 5.53722 6.02199C5.53722 4.93806 6.41613 4.05915 7.49994 4.05915Z" fill="#707070"/>
</g>
</g>
</svg>
