<svg width="15" height="16" viewBox="0 0 15 16" fill="none" xmlns="http://www.w3.org/2000/svg">
<g id="Job" clip-path="url(#clip0_405_6683)">
<g id="Vector">
<path d="M9.375 4.5625C9.03 4.5625 8.75 4.2825 8.75 3.9375V3H6.25V3.9375C6.25 4.2825 5.97 4.5625 5.625 4.5625C5.28 4.5625 5 4.2825 5 3.9375V3C5 2.31062 5.56063 1.75 6.25 1.75H8.75C9.43937 1.75 10 2.31062 10 3V3.9375C10 4.2825 9.72 4.5625 9.375 4.5625Z" fill="#707070"/>
<path d="M7.94375 10.1125C7.83125 10.1562 7.66875 10.1875 7.5 10.1875C7.33125 10.1875 7.16875 10.1562 7.01875 10.1L0 7.7625V12.5312C0 13.4812 0.76875 14.25 1.71875 14.25H13.2812C14.2312 14.25 15 13.4812 15 12.5312V7.7625L7.94375 10.1125Z" fill="#707070"/>
<path d="M15 5.34375V6.775L7.65 9.225C7.6 9.24375 7.55 9.25 7.5 9.25C7.45 9.25 7.4 9.24375 7.35 9.225L0 6.775V5.34375C0 4.39375 0.76875 3.625 1.71875 3.625H13.2812C14.2312 3.625 15 4.39375 15 5.34375Z" fill="#707070"/>
</g>
</g>
<defs>
<clipPath id="clip0_405_6683">
<rect width="15" height="15" fill="white" transform="translate(0 0.5)"/>
</clipPath>
</defs>
</svg>
