<svg width="18" height="18" viewBox="0 0 18 18" fill="none" xmlns="http://www.w3.org/2000/svg">
<g id="fi_15363756">
<g id="Layer 2">
<path id="Vector" d="M9 1.125C10.5575 1.125 12.0801 1.58686 13.3751 2.45218C14.6701 3.31749 15.6795 4.5474 16.2755 5.98637C16.8716 7.42534 17.0275 9.00874 16.7237 10.5363C16.4198 12.0639 15.6698 13.4671 14.5685 14.5685C13.4671 15.6698 12.0639 16.4198 10.5363 16.7237C9.00873 17.0275 7.42533 16.8716 5.98636 16.2756C4.5474 15.6795 3.31749 14.6702 2.45217 13.3751C1.58686 12.0801 1.125 10.5575 1.125 9C1.125 6.91142 1.95468 4.90838 3.43153 3.43153C4.90838 1.95468 6.91142 1.125 9 1.125ZM6.35062 11.6494C6.40291 11.7021 6.46513 11.7439 6.53367 11.7725C6.60222 11.8011 6.67574 11.8158 6.75 11.8158C6.82425 11.8158 6.89778 11.8011 6.96632 11.7725C7.03487 11.7439 7.09708 11.7021 7.14937 11.6494L9.0675 9.72563C9.38405 9.40946 9.5621 8.98053 9.5625 8.53313L9.5625 3.9375C9.5625 3.78832 9.50323 3.64524 9.39774 3.53975C9.29226 3.43426 9.14918 3.375 9 3.375C8.85081 3.375 8.70774 3.43426 8.60225 3.53975C8.49676 3.64524 8.4375 3.78832 8.4375 3.9375L8.4375 8.53313C8.43792 8.60715 8.42374 8.68054 8.39574 8.74907C8.36775 8.81761 8.3265 8.87994 8.27437 8.9325L6.35062 10.8506C6.2979 10.9029 6.25605 10.9651 6.2275 11.0337C6.19894 11.1022 6.18424 11.1757 6.18424 11.25C6.18424 11.3243 6.19894 11.3978 6.2275 11.4663C6.25605 11.5349 6.2979 11.5971 6.35062 11.6494Z" fill="#AFAFAF"/>
</g>
</g>
</svg>
