<svg width="9" height="10" viewBox="0 0 9 10" fill="none" xmlns="http://www.w3.org/2000/svg">
<g id="fi_1828778" clip-path="url(#clip0_405_7308)">
<path id="Vector" d="M5.32454 5.00742L8.82896 1.50289C9.05702 1.27494 9.05702 0.906368 8.82896 0.678413C8.601 0.450458 8.23243 0.450458 8.00448 0.678413L4.49995 4.18294L0.995528 0.678413C0.767466 0.450458 0.399001 0.450458 0.171046 0.678413C-0.0570154 0.906368 -0.0570154 1.27494 0.171046 1.50289L3.67547 5.00742L0.171046 8.51195C-0.0570154 8.73991 -0.0570154 9.10848 0.171046 9.33643C0.28465 9.45014 0.434022 9.50727 0.583287 9.50727C0.732552 9.50727 0.881818 9.45014 0.995528 9.33643L4.49995 5.8319L8.00448 9.33643C8.11819 9.45014 8.26745 9.50727 8.41672 9.50727C8.56598 9.50727 8.71525 9.45014 8.82896 9.33643C9.05702 9.10848 9.05702 8.73991 8.82896 8.51195L5.32454 5.00742Z" fill="#707070"/>
</g>
<defs>
<clipPath id="clip0_405_7308">
<rect width="9" height="9" fill="white" transform="translate(0 0.5)"/>
</clipPath>
</defs>
</svg>
